<svg width="1013" height="253" viewBox="0 0 1013 253" fill="none" xmlns="http://www.w3.org/2000/svg">
<g filter="url(#filter0_d_16_4)">
<path d="M380.271 44.28C381.285 45.9333 383.071 49.2933 385.631 54.36C386.005 55.1067 386.591 56.28 387.391 57.88C388.245 59.48 388.911 60.7067 389.391 61.56L390.351 63.32C392.325 66.9467 393.791 69.5333 394.751 71.08C395.711 72.6267 396.565 73.6133 397.311 74.04L402.111 75.24L401.711 79H387.071C386.058 78.8933 385.098 78.0933 384.191 76.6C383.285 75.1067 382.031 72.6 380.431 69.08C380.378 69.0267 379.418 66.8133 377.551 62.44C375.631 57.8533 374.058 54.3067 372.831 51.8L365.071 59.8L363.231 74.2L369.791 75.32L369.391 79H345.791L346.271 75.32L351.951 74.2L358.431 24.44L352.911 23.48L353.311 19.56H376.751L376.271 23.48L369.631 24.44L366.031 51.88L391.471 24.44L386.111 23.4L386.511 19.56H404.991L404.511 23.48L399.631 24.36L380.271 44.28ZM419.639 55.88C419.426 57.8533 419.239 59.24 419.079 60.04C418.546 64.2 418.279 66.8667 418.279 68.04C418.279 70.1733 418.653 71.6933 419.399 72.6C420.146 73.5067 421.266 73.96 422.759 73.96C424.466 73.96 426.146 73.4267 427.799 72.36C429.506 71.2933 430.946 70.0133 432.119 68.52L436.759 33.96H447.319L442.199 71C442.093 71.96 442.173 72.68 442.439 73.16C442.706 73.64 443.106 73.88 443.639 73.88C444.119 73.88 444.626 73.7467 445.159 73.48C445.693 73.16 446.439 72.6 447.399 71.8L448.519 74.28C447.826 75.4 446.546 76.6 444.679 77.88C442.813 79.16 440.679 79.8 438.279 79.8C436.413 79.8 434.973 79.4 433.959 78.6C432.999 77.8 432.466 76.7067 432.359 75.32L432.279 74.36C432.279 73.9333 432.333 73.4 432.439 72.76L432.279 72.68C428.333 77.4267 423.693 79.8 418.359 79.8C415.373 79.8 412.839 79 410.759 77.4C408.679 75.7467 407.613 73.1333 407.559 69.56C407.559 67.48 407.933 63.72 408.679 58.28C408.893 56.9467 409.026 56.04 409.079 55.56L411.239 41L406.599 38.28L407.239 35L420.519 33.64L422.359 34.52L419.639 55.88ZM477.262 79H452.942L450.862 75.8C454.595 71.0533 459.209 63.56 464.702 53.32C470.249 43.0267 474.489 34.1733 477.422 26.76H478.782L488.622 31.24C485.209 37.32 481.155 44.2 476.462 51.88C471.822 59.5067 468.062 65.1333 465.182 68.76C464.915 69.08 463.769 70.44 461.742 72.84L460.222 74.6L478.142 73.4L479.982 59.16L490.142 56.44L488.302 72.68L496.622 72.12L495.742 79H487.182L485.342 93.64H475.342L477.262 79ZM542.241 55.24C544.374 49.9067 546.881 43.96 549.761 37.4C553.601 28.28 556.081 22.3333 557.201 19.56H578.081L577.601 23.48L570.641 24.44L569.121 74.2L576.001 75.32L575.761 79H550.481L550.801 75.24L558.161 74.28L560.161 40.04L561.041 24.2L555.281 38.12L537.521 79.08L531.921 79.72L526.081 39.08L523.761 24.2L520.401 39.48L512.081 74.2L520.561 75.32L520.241 79H497.681L498.081 75.32L504.561 74.2L517.361 24.44L509.841 23.48L510.401 19.56H533.681L538.561 55.16L539.521 62.44L542.241 55.24ZM608.71 19.56L608.31 23.48L601.83 24.44L595.35 74.2L601.99 75.32L601.75 79H577.83L578.31 75.32L584.15 74.2L590.63 24.44L585.03 23.48L585.43 19.56H608.71ZM632.493 19.56L648.813 60.12L651.853 69.08L657.453 24.36L650.813 23.48L651.213 19.56H669.933L669.613 23.48L664.413 24.44L656.333 79H644.973L628.173 37.64L625.133 28.12L620.013 74.2L627.213 75.32L626.893 79H606.732L606.973 75.32L612.653 74.28L619.773 24.44L613.453 23.48L614.013 19.56H632.493Z" fill="url(#paint0_linear_16_4)"/>
</g>
<path d="M243.777 173L247.617 143.12H251.817L249.897 157.88L262.737 143.12H267.817L255.977 156.4C256.337 157.013 256.637 157.547 256.877 158C257.131 158.453 257.404 158.96 257.697 159.52C257.991 160.067 258.371 160.78 258.837 161.66C259.317 162.527 259.964 163.693 260.777 165.16C261.164 165.853 261.564 166.567 261.977 167.3C262.391 168.033 262.804 168.753 263.217 169.46C263.631 170.167 264.017 170.827 264.377 171.44C264.751 172.04 265.084 172.56 265.377 173H260.137C260.057 172.893 259.877 172.587 259.597 172.08C259.317 171.56 258.991 170.953 258.617 170.26C258.257 169.553 257.904 168.86 257.557 168.18C257.211 167.5 256.924 166.933 256.697 166.48L253.057 159.48L249.177 163.64L247.937 173H243.777ZM274.048 173.32C271.994 173.32 270.454 172.573 269.428 171.08C268.414 169.573 267.908 167.513 267.908 164.9C267.908 162.927 268.201 161.073 268.788 159.34C269.388 157.593 270.241 156.053 271.348 154.72C272.468 153.387 273.801 152.34 275.348 151.58C276.894 150.82 278.628 150.44 280.548 150.44C281.214 150.44 281.961 150.507 282.788 150.64C283.614 150.773 284.361 150.933 285.028 151.12L287.488 150.44L284.408 173H280.568L280.888 169.12C280.088 170.293 279.101 171.287 277.928 172.1C276.768 172.913 275.474 173.32 274.048 173.32ZM275.008 170.08C275.634 170.08 276.234 169.94 276.808 169.66C277.394 169.367 277.948 168.98 278.468 168.5C279.001 168.007 279.494 167.447 279.948 166.82C280.414 166.18 280.834 165.52 281.208 164.84L282.768 153.84C281.901 153.547 280.974 153.4 279.988 153.4C278.321 153.4 276.914 153.973 275.768 155.12C274.621 156.267 273.768 157.687 273.208 159.38C272.648 161.06 272.368 162.74 272.368 164.42C272.368 165.353 272.441 166.253 272.588 167.12C272.734 167.987 272.994 168.7 273.368 169.26C273.754 169.807 274.301 170.08 275.008 170.08ZM297.661 173.32C296.981 173.32 296.228 173.247 295.401 173.1C294.574 172.953 293.828 172.787 293.161 172.6L290.741 173.26L295.001 141.02H299.141L297.961 151.14L297.301 154.6C297.861 153.827 298.508 153.127 299.241 152.5C299.974 151.873 300.768 151.373 301.621 151C302.488 150.627 303.401 150.44 304.361 150.44C306.414 150.44 307.948 151.193 308.961 152.7C309.974 154.207 310.481 156.253 310.481 158.84C310.481 161.12 310.014 163.353 309.081 165.54C308.454 167.033 307.601 168.367 306.521 169.54C305.454 170.713 304.174 171.64 302.681 172.32C301.201 172.987 299.528 173.32 297.661 173.32ZM298.241 170.3C299.894 170.3 301.321 169.733 302.521 168.6C303.668 167.467 304.534 166.053 305.121 164.36C305.708 162.667 306.001 160.98 306.001 159.3C306.001 157.713 305.814 156.38 305.441 155.3C305.068 154.22 304.381 153.68 303.381 153.68C302.781 153.68 302.174 153.847 301.561 154.18C300.948 154.5 300.348 154.92 299.761 155.44C299.188 155.96 298.661 156.527 298.181 157.14C297.701 157.753 297.288 158.347 296.941 158.92L295.481 169.9C296.321 170.167 297.241 170.3 298.241 170.3ZM319.486 173.4C317.753 173.4 316.453 172.96 315.586 172.08C314.733 171.187 314.306 169.753 314.306 167.78C314.306 167.367 314.346 166.747 314.426 165.92C314.506 165.093 314.613 164.107 314.746 162.96C314.906 161.8 315.086 160.513 315.286 159.1C315.486 157.673 315.686 156.233 315.886 154.78C316.099 153.327 316.293 151.973 316.466 150.72H320.806C320.766 150.973 320.693 151.473 320.586 152.22C320.479 152.967 320.353 153.847 320.206 154.86C320.073 155.86 319.933 156.893 319.786 157.96C319.639 159.013 319.506 159.993 319.386 160.9C319.266 161.793 319.173 162.493 319.106 163C318.986 164 318.893 164.86 318.826 165.58C318.759 166.3 318.726 166.88 318.726 167.32C318.726 168.24 318.919 168.88 319.306 169.24C319.693 169.6 320.313 169.78 321.166 169.78C321.833 169.78 322.546 169.567 323.306 169.14C324.079 168.7 324.839 168.113 325.586 167.38C326.346 166.633 327.026 165.807 327.626 164.9L329.526 150.72H333.846L330.866 173H326.886L327.266 168.84C326.253 170.187 325.073 171.287 323.726 172.14C322.393 172.98 320.979 173.4 319.486 173.4ZM337.847 172.94L342.187 141.02H346.507L342.167 172.94H337.847ZM366.175 173.32C363.202 173.32 360.942 172.54 359.395 170.98C357.862 169.42 357.095 167.247 357.095 164.46C357.095 164.153 357.115 163.773 357.155 163.32C357.209 162.867 357.282 162.22 357.375 161.38L359.695 143.12H364.075L361.815 160.68C361.735 161.387 361.675 162.04 361.635 162.64C361.595 163.24 361.575 163.78 361.575 164.26C361.575 166.127 362.022 167.52 362.915 168.44C363.809 169.347 365.109 169.8 366.815 169.8C368.255 169.8 369.455 169.46 370.415 168.78C371.389 168.087 372.169 167.053 372.755 165.68C373.342 164.293 373.775 162.553 374.055 160.46L376.275 143.12H380.555L378.275 160.86C378.075 162.353 377.802 163.707 377.455 164.92C377.109 166.133 376.682 167.193 376.175 168.1C375.162 169.927 373.829 171.253 372.175 172.08C370.522 172.907 368.522 173.32 366.175 173.32ZM382.81 173L385.85 150.72H389.97L389.57 155.04C390.717 153.667 392.024 152.56 393.49 151.72C394.97 150.867 396.47 150.44 397.99 150.44C399.497 150.44 400.624 150.88 401.37 151.76C402.13 152.64 402.51 154.093 402.51 156.12C402.51 156.427 402.477 156.887 402.41 157.5C402.357 158.113 402.27 158.88 402.15 159.8C402.03 160.707 401.884 161.767 401.71 162.98C401.67 163.313 401.624 163.687 401.57 164.1C401.517 164.513 401.45 164.993 401.37 165.54C401.29 166.087 401.197 166.72 401.09 167.44C400.984 168.147 400.857 168.96 400.71 169.88C400.564 170.787 400.397 171.827 400.21 173H395.87C395.924 172.6 396.01 171.96 396.13 171.08C396.264 170.187 396.43 169.067 396.63 167.72C396.83 166.36 397.064 164.78 397.33 162.98C397.57 161.313 397.75 159.953 397.87 158.9C397.99 157.847 398.05 157.04 398.05 156.48C398.05 155.6 397.897 155.007 397.59 154.7C397.297 154.393 396.797 154.24 396.09 154.24C395.584 154.24 395.004 154.393 394.35 154.7C393.71 154.993 393.057 155.387 392.39 155.88C391.724 156.36 391.097 156.88 390.51 157.44C389.924 158 389.437 158.54 389.05 159.06L387.13 173H382.81ZM407.241 173L410.261 150.72H414.581L411.561 173H407.241ZM413.301 146.32C412.675 146.32 412.115 146.087 411.621 145.62C411.141 145.153 410.901 144.593 410.901 143.94C410.901 143.14 411.201 142.433 411.801 141.82C412.415 141.193 413.128 140.88 413.941 140.88C414.688 140.88 415.301 141.1 415.781 141.54C416.275 141.98 416.521 142.533 416.521 143.2C416.521 144.04 416.201 144.773 415.561 145.4C414.921 146.013 414.168 146.32 413.301 146.32ZM421.802 173.34L420.682 166.02L418.562 150.72H423.222L424.522 165.62L424.762 169.66L426.502 167.38C427.769 165.62 428.809 163.853 429.622 162.08C430.449 160.293 431.082 158.413 431.522 156.44C431.642 155.947 431.755 155.34 431.862 154.62C431.982 153.887 432.075 153.167 432.142 152.46C432.222 151.74 432.262 151.16 432.262 150.72H436.302C436.329 150.947 436.349 151.36 436.362 151.96C436.375 152.547 436.369 153.04 436.342 153.44C436.222 155.213 435.895 156.92 435.362 158.56C434.842 160.187 434.122 161.793 433.202 163.38C432.295 164.953 431.202 166.54 429.922 168.14C428.642 169.74 427.182 171.393 425.542 173.1L421.802 173.34ZM446.159 173.32C444.386 173.32 442.913 172.913 441.739 172.1C440.566 171.273 439.699 170.2 439.139 168.88C438.593 167.56 438.326 166.113 438.339 164.54C438.353 161.98 438.886 159.593 439.939 157.38C440.953 155.233 442.346 153.54 444.119 152.3C445.893 151.06 447.906 150.44 450.159 150.44C451.386 150.44 452.413 150.673 453.239 151.14C454.066 151.607 454.693 152.213 455.119 152.96C455.546 153.707 455.759 154.507 455.759 155.36C455.759 156.787 455.386 158.053 454.639 159.16C453.906 160.267 452.913 161.213 451.659 162C450.419 162.787 449.033 163.413 447.499 163.88C445.979 164.347 444.439 164.66 442.879 164.82C442.879 164.927 442.879 165.033 442.879 165.14C442.879 165.247 442.879 165.353 442.879 165.46C442.906 166.78 443.219 167.873 443.819 168.74C444.433 169.607 445.426 170.04 446.799 170.04C447.493 170.04 448.206 169.92 448.939 169.68C449.673 169.427 450.406 169.067 451.139 168.6C451.873 168.133 452.579 167.573 453.259 166.92L454.439 169.26C454.133 169.687 453.666 170.14 453.039 170.62C452.413 171.087 451.699 171.527 450.899 171.94C450.099 172.353 449.286 172.687 448.459 172.94C447.633 173.193 446.866 173.32 446.159 173.32ZM442.959 162C443.879 161.973 444.833 161.793 445.819 161.46C446.806 161.113 447.726 160.653 448.579 160.08C449.446 159.507 450.146 158.853 450.679 158.12C451.213 157.373 451.479 156.58 451.479 155.74C451.479 154.927 451.286 154.347 450.899 154C450.513 153.653 449.946 153.48 449.199 153.48C448.626 153.48 448.086 153.593 447.579 153.82C447.073 154.033 446.593 154.367 446.139 154.82C445.233 155.727 444.506 156.847 443.959 158.18C443.413 159.513 443.079 160.787 442.959 162ZM458.709 173L461.749 150.72H465.909L465.509 154.78C465.869 154.153 466.369 153.507 467.009 152.84C467.649 152.16 468.402 151.593 469.269 151.14C470.149 150.673 471.116 150.44 472.169 150.44C472.822 150.44 473.236 150.52 473.409 150.68L472.449 155.22C472.289 155.113 472.042 155.04 471.709 155C471.389 154.947 471.009 154.92 470.569 154.92C469.769 154.92 469.009 155.153 468.289 155.62C467.569 156.087 466.916 156.693 466.329 157.44C465.756 158.173 465.262 158.94 464.849 159.74L463.029 173H458.709ZM479.631 173.32C478.818 173.32 478.004 173.26 477.191 173.14C476.391 173.033 475.684 172.893 475.071 172.72C474.458 172.533 474.018 172.34 473.751 172.14L474.571 168.44C475.051 168.773 475.578 169.067 476.151 169.32C476.724 169.573 477.318 169.773 477.931 169.92C478.558 170.053 479.171 170.12 479.771 170.12C480.838 170.12 481.711 169.913 482.391 169.5C483.071 169.087 483.411 168.433 483.411 167.54C483.411 167.047 483.324 166.6 483.151 166.2C482.978 165.787 482.651 165.347 482.171 164.88C481.704 164.4 481.031 163.807 480.151 163.1C479.004 162.153 478.051 161.193 477.291 160.22C476.544 159.247 476.171 158.033 476.171 156.58C476.171 155.22 476.518 154.087 477.211 153.18C477.918 152.26 478.851 151.573 480.011 151.12C481.184 150.667 482.471 150.44 483.871 150.44C484.604 150.44 485.298 150.48 485.951 150.56C486.618 150.627 487.211 150.72 487.731 150.84C488.251 150.947 488.644 151.06 488.911 151.18L488.151 155.12C487.951 154.867 487.624 154.627 487.171 154.4C486.718 154.16 486.198 153.967 485.611 153.82C485.038 153.673 484.451 153.6 483.851 153.6C482.798 153.6 481.931 153.82 481.251 154.26C480.584 154.7 480.251 155.333 480.251 156.16C480.251 156.747 480.364 157.273 480.591 157.74C480.818 158.207 481.158 158.66 481.611 159.1C482.078 159.527 482.651 160.007 483.331 160.54C484.104 161.113 484.811 161.747 485.451 162.44C486.091 163.133 486.604 163.873 486.991 164.66C487.378 165.447 487.571 166.267 487.571 167.12C487.571 168.547 487.211 169.72 486.491 170.64C485.771 171.56 484.811 172.24 483.611 172.68C482.411 173.107 481.084 173.32 479.631 173.32ZM492.554 173L495.574 150.72H499.894L496.874 173H492.554ZM498.614 146.32C497.987 146.32 497.427 146.087 496.934 145.62C496.454 145.153 496.214 144.593 496.214 143.94C496.214 143.14 496.514 142.433 497.114 141.82C497.727 141.193 498.441 140.88 499.254 140.88C500.001 140.88 500.614 141.1 501.094 141.54C501.587 141.98 501.834 142.533 501.834 143.2C501.834 144.04 501.514 144.773 500.874 145.4C500.234 146.013 499.481 146.32 498.614 146.32ZM508.295 173.32C507.175 173.32 506.275 173.033 505.595 172.46C504.915 171.887 504.575 170.973 504.575 169.72C504.575 169.547 504.581 169.327 504.595 169.06C504.621 168.78 504.648 168.46 504.675 168.1C504.715 167.727 504.761 167.32 504.815 166.88L506.415 154H504.255L505.055 150.72H507.135L508.455 145.28H511.975L511.255 150.72H516.255L515.815 154H510.815C510.548 156.027 510.315 157.793 510.115 159.3C509.915 160.807 509.741 162.093 509.595 163.16C509.461 164.213 509.355 165.08 509.275 165.76C509.195 166.427 509.135 166.94 509.095 167.3C509.068 167.66 509.055 167.907 509.055 168.04C509.055 168.613 509.128 169.087 509.275 169.46C509.435 169.82 509.735 170 510.175 170C510.468 170 510.868 169.9 511.375 169.7C511.895 169.5 512.415 169.253 512.935 168.96C513.468 168.667 513.895 168.387 514.215 168.12L514.775 170.44C514.415 170.893 513.861 171.34 513.115 171.78C512.368 172.22 511.555 172.587 510.675 172.88C509.808 173.173 509.015 173.32 508.295 173.32ZM518.843 173L521.863 150.72H526.183L523.163 173H518.843ZM524.903 146.32C524.276 146.32 523.716 146.087 523.223 145.62C522.743 145.153 522.503 144.593 522.503 143.94C522.503 143.14 522.803 142.433 523.403 141.82C524.016 141.193 524.73 140.88 525.543 140.88C526.29 140.88 526.903 141.1 527.383 141.54C527.876 141.98 528.123 142.533 528.123 143.2C528.123 144.04 527.803 144.773 527.163 145.4C526.523 146.013 525.77 146.32 524.903 146.32ZM537.644 173.32C535.87 173.32 534.397 172.913 533.224 172.1C532.05 171.273 531.184 170.2 530.624 168.88C530.077 167.56 529.81 166.113 529.824 164.54C529.837 161.98 530.37 159.593 531.424 157.38C532.437 155.233 533.83 153.54 535.604 152.3C537.377 151.06 539.39 150.44 541.644 150.44C542.87 150.44 543.897 150.673 544.724 151.14C545.55 151.607 546.177 152.213 546.604 152.96C547.03 153.707 547.244 154.507 547.244 155.36C547.244 156.787 546.87 158.053 546.124 159.16C545.39 160.267 544.397 161.213 543.144 162C541.904 162.787 540.517 163.413 538.984 163.88C537.464 164.347 535.924 164.66 534.364 164.82C534.364 164.927 534.364 165.033 534.364 165.14C534.364 165.247 534.364 165.353 534.364 165.46C534.39 166.78 534.704 167.873 535.304 168.74C535.917 169.607 536.91 170.04 538.284 170.04C538.977 170.04 539.69 169.92 540.424 169.68C541.157 169.427 541.89 169.067 542.624 168.6C543.357 168.133 544.064 167.573 544.744 166.92L545.924 169.26C545.617 169.687 545.15 170.14 544.524 170.62C543.897 171.087 543.184 171.527 542.384 171.94C541.584 172.353 540.77 172.687 539.944 172.94C539.117 173.193 538.35 173.32 537.644 173.32ZM534.444 162C535.364 161.973 536.317 161.793 537.304 161.46C538.29 161.113 539.21 160.653 540.064 160.08C540.93 159.507 541.63 158.853 542.164 158.12C542.697 157.373 542.964 156.58 542.964 155.74C542.964 154.927 542.77 154.347 542.384 154C541.997 153.653 541.43 153.48 540.684 153.48C540.11 153.48 539.57 153.593 539.064 153.82C538.557 154.033 538.077 154.367 537.624 154.82C536.717 155.727 535.99 156.847 535.444 158.18C534.897 159.513 534.564 160.787 534.444 162ZM555.373 173.32C554.56 173.32 553.747 173.26 552.933 173.14C552.133 173.033 551.427 172.893 550.813 172.72C550.2 172.533 549.76 172.34 549.493 172.14L550.313 168.44C550.793 168.773 551.32 169.067 551.893 169.32C552.467 169.573 553.06 169.773 553.673 169.92C554.3 170.053 554.913 170.12 555.513 170.12C556.58 170.12 557.453 169.913 558.133 169.5C558.813 169.087 559.153 168.433 559.153 167.54C559.153 167.047 559.067 166.6 558.893 166.2C558.72 165.787 558.393 165.347 557.913 164.88C557.447 164.4 556.773 163.807 555.893 163.1C554.747 162.153 553.793 161.193 553.033 160.22C552.287 159.247 551.913 158.033 551.913 156.58C551.913 155.22 552.26 154.087 552.953 153.18C553.66 152.26 554.593 151.573 555.753 151.12C556.927 150.667 558.213 150.44 559.613 150.44C560.347 150.44 561.04 150.48 561.693 150.56C562.36 150.627 562.953 150.72 563.473 150.84C563.993 150.947 564.387 151.06 564.653 151.18L563.893 155.12C563.693 154.867 563.367 154.627 562.913 154.4C562.46 154.16 561.94 153.967 561.353 153.82C560.78 153.673 560.193 153.6 559.593 153.6C558.54 153.6 557.673 153.82 556.993 154.26C556.327 154.7 555.993 155.333 555.993 156.16C555.993 156.747 556.107 157.273 556.333 157.74C556.56 158.207 556.9 158.66 557.353 159.1C557.82 159.527 558.393 160.007 559.073 160.54C559.847 161.113 560.553 161.747 561.193 162.44C561.833 163.133 562.347 163.873 562.733 164.66C563.12 165.447 563.313 166.267 563.313 167.12C563.313 168.547 562.953 169.72 562.233 170.64C561.513 171.56 560.553 172.24 559.353 172.68C558.153 173.107 556.827 173.32 555.373 173.32ZM585.104 173.32C582.93 173.32 581.117 172.753 579.664 171.62C578.21 170.487 577.117 168.973 576.384 167.08C575.664 165.187 575.304 163.093 575.304 160.8C575.304 158.4 575.624 156.12 576.264 153.96C576.917 151.8 577.85 149.88 579.064 148.2C580.29 146.52 581.764 145.2 583.484 144.24C585.204 143.28 587.13 142.8 589.264 142.8C590.917 142.8 592.35 143.133 593.564 143.8C594.79 144.453 595.804 145.36 596.604 146.52C597.417 147.68 598.024 149.013 598.424 150.52C598.824 152.027 599.024 153.627 599.024 155.32C599.024 157.733 598.704 160.027 598.064 162.2C597.437 164.36 596.517 166.28 595.304 167.96C594.104 169.627 592.644 170.94 590.924 171.9C589.204 172.847 587.264 173.32 585.104 173.32ZM585.704 170C587.13 170 588.397 169.58 589.504 168.74C590.61 167.887 591.537 166.76 592.284 165.36C593.03 163.96 593.59 162.413 593.964 160.72C594.35 159.027 594.53 157.333 594.504 155.64C594.477 153.547 594.257 151.8 593.844 150.4C593.444 149 592.817 147.953 591.964 147.26C591.11 146.553 589.997 146.2 588.624 146.2C587.21 146.2 585.95 146.627 584.844 147.48C583.75 148.32 582.824 149.44 582.064 150.84C581.317 152.24 580.75 153.78 580.364 155.46C579.99 157.14 579.81 158.813 579.824 160.48C579.89 163.773 580.397 166.187 581.344 167.72C582.29 169.24 583.744 170 585.704 170ZM601.717 173L604.757 150.72H608.877L608.477 155.04C609.623 153.667 610.93 152.56 612.397 151.72C613.877 150.867 615.377 150.44 616.897 150.44C618.403 150.44 619.53 150.88 620.277 151.76C621.037 152.64 621.417 154.093 621.417 156.12C621.417 156.427 621.383 156.887 621.317 157.5C621.263 158.113 621.177 158.88 621.057 159.8C620.937 160.707 620.79 161.767 620.617 162.98C620.577 163.313 620.53 163.687 620.477 164.1C620.423 164.513 620.357 164.993 620.277 165.54C620.197 166.087 620.103 166.72 619.997 167.44C619.89 168.147 619.763 168.96 619.617 169.88C619.47 170.787 619.303 171.827 619.117 173H614.777C614.83 172.6 614.917 171.96 615.037 171.08C615.17 170.187 615.337 169.067 615.537 167.72C615.737 166.36 615.97 164.78 616.237 162.98C616.477 161.313 616.657 159.953 616.777 158.9C616.897 157.847 616.957 157.04 616.957 156.48C616.957 155.6 616.803 155.007 616.497 154.7C616.203 154.393 615.703 154.24 614.997 154.24C614.49 154.24 613.91 154.393 613.257 154.7C612.617 154.993 611.963 155.387 611.297 155.88C610.63 156.36 610.003 156.88 609.417 157.44C608.83 158 608.343 158.54 607.957 159.06L606.037 173H601.717ZM626.168 172.94L630.508 141.02H634.828L630.488 172.94H626.168ZM637.788 173L640.808 150.72H645.128L642.108 173H637.788ZM643.848 146.32C643.222 146.32 642.662 146.087 642.168 145.62C641.688 145.153 641.448 144.593 641.448 143.94C641.448 143.14 641.748 142.433 642.348 141.82C642.962 141.193 643.675 140.88 644.488 140.88C645.235 140.88 645.848 141.1 646.328 141.54C646.822 141.98 647.068 142.533 647.068 143.2C647.068 144.04 646.748 144.773 646.108 145.4C645.468 146.013 644.715 146.32 643.848 146.32ZM648.709 173L651.749 150.72H655.869L655.469 155.04C656.616 153.667 657.922 152.56 659.389 151.72C660.869 150.867 662.369 150.44 663.889 150.44C665.396 150.44 666.522 150.88 667.269 151.76C668.029 152.64 668.409 154.093 668.409 156.12C668.409 156.427 668.376 156.887 668.309 157.5C668.256 158.113 668.169 158.88 668.049 159.8C667.929 160.707 667.782 161.767 667.609 162.98C667.569 163.313 667.522 163.687 667.469 164.1C667.416 164.513 667.349 164.993 667.269 165.54C667.189 166.087 667.096 166.72 666.989 167.44C666.882 168.147 666.756 168.96 666.609 169.88C666.462 170.787 666.296 171.827 666.109 173H661.769C661.822 172.6 661.909 171.96 662.029 171.08C662.162 170.187 662.329 169.067 662.529 167.72C662.729 166.36 662.962 164.78 663.229 162.98C663.469 161.313 663.649 159.953 663.769 158.9C663.889 157.847 663.949 157.04 663.949 156.48C663.949 155.6 663.796 155.007 663.489 154.7C663.196 154.393 662.696 154.24 661.989 154.24C661.482 154.24 660.902 154.393 660.249 154.7C659.609 154.993 658.956 155.387 658.289 155.88C657.622 156.36 656.996 156.88 656.409 157.44C655.822 158 655.336 158.54 654.949 159.06L653.029 173H648.709ZM680.3 173.32C678.527 173.32 677.053 172.913 675.88 172.1C674.707 171.273 673.84 170.2 673.28 168.88C672.733 167.56 672.467 166.113 672.48 164.54C672.493 161.98 673.027 159.593 674.08 157.38C675.093 155.233 676.487 153.54 678.26 152.3C680.033 151.06 682.047 150.44 684.3 150.44C685.527 150.44 686.553 150.673 687.38 151.14C688.207 151.607 688.833 152.213 689.26 152.96C689.687 153.707 689.9 154.507 689.9 155.36C689.9 156.787 689.527 158.053 688.78 159.16C688.047 160.267 687.053 161.213 685.8 162C684.56 162.787 683.173 163.413 681.64 163.88C680.12 164.347 678.58 164.66 677.02 164.82C677.02 164.927 677.02 165.033 677.02 165.14C677.02 165.247 677.02 165.353 677.02 165.46C677.047 166.78 677.36 167.873 677.96 168.74C678.573 169.607 679.567 170.04 680.94 170.04C681.633 170.04 682.347 169.92 683.08 169.68C683.813 169.427 684.547 169.067 685.28 168.6C686.013 168.133 686.72 167.573 687.4 166.92L688.58 169.26C688.273 169.687 687.807 170.14 687.18 170.62C686.553 171.087 685.84 171.527 685.04 171.94C684.24 172.353 683.427 172.687 682.6 172.94C681.773 173.193 681.007 173.32 680.3 173.32ZM677.1 162C678.02 161.973 678.973 161.793 679.96 161.46C680.947 161.113 681.867 160.653 682.72 160.08C683.587 159.507 684.287 158.853 684.82 158.12C685.353 157.373 685.62 156.58 685.62 155.74C685.62 154.927 685.427 154.347 685.04 154C684.653 153.653 684.087 153.48 683.34 153.48C682.767 153.48 682.227 153.593 681.72 153.82C681.213 154.033 680.733 154.367 680.28 154.82C679.373 155.727 678.647 156.847 678.1 158.18C677.553 159.513 677.22 160.787 677.1 162ZM700.497 173L704.337 143.12H706.737C707.004 143.12 707.39 143.107 707.897 143.08C708.404 143.04 708.95 143 709.537 142.96C710.137 142.92 710.71 142.887 711.257 142.86C711.804 142.82 712.257 142.8 712.617 142.8C715.59 142.8 717.857 143.46 719.417 144.78C720.99 146.1 721.777 148.1 721.777 150.78C721.79 153.18 721.29 155.307 720.277 157.16C719.264 159.013 717.837 160.44 715.997 161.44C714.157 162.44 712.044 162.94 709.657 162.94C708.844 162.94 708.144 162.927 707.557 162.9C706.984 162.86 706.524 162.813 706.177 162.76L704.837 173H700.497ZM709.637 159.56C712.237 159.547 714.164 158.82 715.417 157.38C716.67 155.927 717.33 153.787 717.397 150.96C717.437 149.293 717.004 148.053 716.097 147.24C715.19 146.413 713.784 146 711.877 146C711.384 146 710.784 146.04 710.077 146.12C709.384 146.187 708.784 146.28 708.277 146.4L706.617 159.28C706.95 159.36 707.41 159.427 707.997 159.48C708.597 159.533 709.144 159.56 709.637 159.56ZM730.473 173.32C728.767 173.32 727.34 172.947 726.193 172.2C725.06 171.44 724.207 170.367 723.633 168.98C723.06 167.58 722.773 165.92 722.773 164C722.773 161.667 723.26 159.447 724.233 157.34C725.18 155.273 726.52 153.607 728.253 152.34C730 151.073 731.973 150.44 734.173 150.44C735.853 150.44 737.247 150.807 738.353 151.54C739.46 152.273 740.287 153.333 740.833 154.72C741.393 156.093 741.673 157.753 741.673 159.7C741.673 162.047 741.207 164.267 740.273 166.36C739.34 168.453 738.02 170.14 736.313 171.42C734.607 172.687 732.66 173.32 730.473 173.32ZM731.133 170.22C732.173 170.22 733.073 169.907 733.833 169.28C734.593 168.64 735.22 167.8 735.713 166.76C736.22 165.72 736.593 164.587 736.833 163.36C737.073 162.12 737.193 160.9 737.193 159.7C737.193 158.327 737.067 157.18 736.813 156.26C736.56 155.34 736.16 154.647 735.613 154.18C735.067 153.713 734.36 153.48 733.493 153.48C732.427 153.48 731.5 153.807 730.713 154.46C729.927 155.113 729.273 155.967 728.753 157.02C728.247 158.073 727.867 159.22 727.613 160.46C727.36 161.7 727.233 162.9 727.233 164.06C727.233 166.06 727.553 167.587 728.193 168.64C728.833 169.693 729.813 170.22 731.133 170.22ZM744.998 173L748.038 150.72H752.198L751.798 154.78C752.158 154.153 752.658 153.507 753.298 152.84C753.938 152.16 754.691 151.593 755.558 151.14C756.438 150.673 757.405 150.44 758.458 150.44C759.111 150.44 759.525 150.52 759.698 150.68L758.738 155.22C758.578 155.113 758.331 155.04 757.998 155C757.678 154.947 757.298 154.92 756.858 154.92C756.058 154.92 755.298 155.153 754.578 155.62C753.858 156.087 753.205 156.693 752.618 157.44C752.045 158.173 751.551 158.94 751.138 159.74L749.318 173H744.998ZM765.56 173.32C764.44 173.32 763.54 173.033 762.86 172.46C762.18 171.887 761.84 170.973 761.84 169.72C761.84 169.547 761.847 169.327 761.86 169.06C761.887 168.78 761.913 168.46 761.94 168.1C761.98 167.727 762.027 167.32 762.08 166.88L763.68 154H761.52L762.32 150.72H764.4L765.72 145.28H769.24L768.52 150.72H773.52L773.08 154H768.08C767.813 156.027 767.58 157.793 767.38 159.3C767.18 160.807 767.007 162.093 766.86 163.16C766.727 164.213 766.62 165.08 766.54 165.76C766.46 166.427 766.4 166.94 766.36 167.3C766.333 167.66 766.32 167.907 766.32 168.04C766.32 168.613 766.393 169.087 766.54 169.46C766.7 169.82 767 170 767.44 170C767.733 170 768.133 169.9 768.64 169.7C769.16 169.5 769.68 169.253 770.2 168.96C770.733 168.667 771.16 168.387 771.48 168.12L772.04 170.44C771.68 170.893 771.127 171.34 770.38 171.78C769.633 172.22 768.82 172.587 767.94 172.88C767.073 173.173 766.28 173.32 765.56 173.32ZM781.509 173.32C779.455 173.32 777.915 172.573 776.889 171.08C775.875 169.573 775.369 167.513 775.369 164.9C775.369 162.927 775.662 161.073 776.249 159.34C776.849 157.593 777.702 156.053 778.809 154.72C779.929 153.387 781.262 152.34 782.809 151.58C784.355 150.82 786.089 150.44 788.009 150.44C788.675 150.44 789.422 150.507 790.249 150.64C791.075 150.773 791.822 150.933 792.489 151.12L794.949 150.44L791.869 173H788.029L788.349 169.12C787.549 170.293 786.562 171.287 785.389 172.1C784.229 172.913 782.935 173.32 781.509 173.32ZM782.469 170.08C783.095 170.08 783.695 169.94 784.269 169.66C784.855 169.367 785.409 168.98 785.929 168.5C786.462 168.007 786.955 167.447 787.409 166.82C787.875 166.18 788.295 165.52 788.669 164.84L790.229 153.84C789.362 153.547 788.435 153.4 787.449 153.4C785.782 153.4 784.375 153.973 783.229 155.12C782.082 156.267 781.229 157.687 780.669 159.38C780.109 161.06 779.829 162.74 779.829 164.42C779.829 165.353 779.902 166.253 780.049 167.12C780.195 167.987 780.455 168.7 780.829 169.26C781.215 169.807 781.762 170.08 782.469 170.08ZM798.902 172.94L803.242 141.02H807.562L803.222 172.94H798.902ZM410.098 223L424.658 193.12H429.678L435.078 223H430.698L429.518 215.62H418.138L414.798 223H410.098ZM419.598 212.38H428.998L426.878 198.96L426.658 196.7L425.678 198.94L419.598 212.38ZM444.359 223.32C442.306 223.32 440.773 222.573 439.759 221.08C438.746 219.573 438.239 217.513 438.239 214.9C438.239 212.647 438.713 210.393 439.659 208.14C440.286 206.66 441.133 205.34 442.199 204.18C443.266 203.02 444.539 202.107 446.019 201.44C447.513 200.773 449.186 200.44 451.039 200.44C451.426 200.44 451.833 200.46 452.259 200.5C452.699 200.527 453.159 200.587 453.639 200.68L454.959 191.02H459.239L454.959 223H451.079L451.399 218.98C450.853 219.793 450.213 220.527 449.479 221.18C448.759 221.833 447.966 222.353 447.099 222.74C446.233 223.127 445.319 223.32 444.359 223.32ZM445.319 220.06C445.919 220.06 446.519 219.9 447.119 219.58C447.733 219.26 448.326 218.833 448.899 218.3C449.473 217.767 449.999 217.193 450.479 216.58C450.959 215.953 451.373 215.34 451.719 214.74L453.219 203.88C452.379 203.56 451.459 203.4 450.459 203.4C448.806 203.4 447.393 203.973 446.219 205.12C445.046 206.267 444.166 207.687 443.579 209.38C442.993 211.073 442.699 212.753 442.699 214.42C442.699 215.447 442.779 216.387 442.939 217.24C443.099 218.093 443.366 218.78 443.739 219.3C444.126 219.807 444.653 220.06 445.319 220.06ZM461.366 222.94L464.366 200.72H468.506L468.126 204.86C469.193 203.54 470.413 202.473 471.786 201.66C473.173 200.847 474.559 200.44 475.946 200.44C477.253 200.44 478.273 200.767 479.006 201.42C479.753 202.06 480.206 203.113 480.366 204.58C481.446 203.327 482.653 202.327 483.986 201.58C485.319 200.82 486.653 200.44 487.986 200.44C489.519 200.44 490.653 200.88 491.386 201.76C492.119 202.64 492.486 204.093 492.486 206.12C492.486 206.587 492.419 207.393 492.286 208.54C492.153 209.673 491.953 211.153 491.686 212.98C491.499 214.393 491.293 215.853 491.066 217.36C490.853 218.867 490.573 220.727 490.226 222.94H485.886C485.966 222.327 486.046 221.727 486.126 221.14C486.219 220.54 486.313 219.92 486.406 219.28C486.499 218.64 486.599 217.953 486.706 217.22C486.813 216.473 486.933 215.647 487.066 214.74C487.199 213.833 487.346 212.82 487.506 211.7C487.693 210.393 487.833 209.32 487.926 208.48C488.019 207.64 488.066 206.973 488.066 206.48C488.066 205.6 487.913 205.007 487.606 204.7C487.299 204.393 486.786 204.24 486.066 204.24C485.279 204.24 484.353 204.593 483.286 205.3C482.219 205.993 481.233 206.887 480.326 207.98C480.273 208.487 480.199 209.087 480.106 209.78C480.026 210.46 479.919 211.22 479.786 212.06C479.679 212.847 479.573 213.587 479.466 214.28C479.373 214.973 479.279 215.66 479.186 216.34C479.093 217.007 478.993 217.687 478.886 218.38C478.779 219.06 478.673 219.773 478.566 220.52C478.459 221.267 478.339 222.073 478.206 222.94H473.886C473.926 222.633 473.999 222.087 474.106 221.3C474.226 220.513 474.359 219.58 474.506 218.5C474.666 217.42 474.833 216.287 475.006 215.1C475.179 213.9 475.339 212.753 475.486 211.66C475.633 210.447 475.759 209.367 475.866 208.42C475.973 207.473 476.026 206.827 476.026 206.48C476.026 205.613 475.873 205.027 475.566 204.72C475.259 204.4 474.753 204.24 474.046 204.24C473.593 204.24 473.073 204.387 472.486 204.68C471.899 204.96 471.293 205.333 470.666 205.8C470.053 206.253 469.479 206.76 468.946 207.32C468.413 207.867 467.966 208.4 467.606 208.92L465.686 222.94H461.366ZM497.241 223L500.261 200.72H504.581L501.561 223H497.241ZM503.301 196.32C502.675 196.32 502.115 196.087 501.621 195.62C501.141 195.153 500.901 194.593 500.901 193.94C500.901 193.14 501.201 192.433 501.801 191.82C502.415 191.193 503.128 190.88 503.941 190.88C504.688 190.88 505.301 191.1 505.781 191.54C506.275 191.98 506.521 192.533 506.521 193.2C506.521 194.04 506.201 194.773 505.561 195.4C504.921 196.013 504.168 196.32 503.301 196.32ZM508.162 223L511.202 200.72H515.322L514.922 205.04C516.069 203.667 517.375 202.56 518.842 201.72C520.322 200.867 521.822 200.44 523.342 200.44C524.849 200.44 525.975 200.88 526.722 201.76C527.482 202.64 527.862 204.093 527.862 206.12C527.862 206.427 527.829 206.887 527.762 207.5C527.709 208.113 527.622 208.88 527.502 209.8C527.382 210.707 527.235 211.767 527.062 212.98C527.022 213.313 526.975 213.687 526.922 214.1C526.869 214.513 526.802 214.993 526.722 215.54C526.642 216.087 526.549 216.72 526.442 217.44C526.335 218.147 526.209 218.96 526.062 219.88C525.915 220.787 525.749 221.827 525.562 223H521.222C521.275 222.6 521.362 221.96 521.482 221.08C521.615 220.187 521.782 219.067 521.982 217.72C522.182 216.36 522.415 214.78 522.682 212.98C522.922 211.313 523.102 209.953 523.222 208.9C523.342 207.847 523.402 207.04 523.402 206.48C523.402 205.6 523.249 205.007 522.942 204.7C522.649 204.393 522.149 204.24 521.442 204.24C520.935 204.24 520.355 204.393 519.702 204.7C519.062 204.993 518.409 205.387 517.742 205.88C517.075 206.36 516.449 206.88 515.862 207.44C515.275 208 514.789 208.54 514.402 209.06L512.482 223H508.162ZM539.52 223L543.36 193.12H545.76C546.027 193.12 546.414 193.107 546.92 193.08C547.427 193.04 547.974 193 548.56 192.96C549.16 192.92 549.734 192.887 550.28 192.86C550.827 192.82 551.28 192.8 551.64 192.8C554.614 192.8 556.88 193.46 558.44 194.78C560.014 196.1 560.8 198.1 560.8 200.78C560.814 203.18 560.314 205.307 559.3 207.16C558.287 209.013 556.86 210.44 555.02 211.44C553.18 212.44 551.067 212.94 548.68 212.94C547.867 212.94 547.167 212.927 546.58 212.9C546.007 212.86 545.547 212.813 545.2 212.76L543.86 223H539.52ZM548.66 209.56C551.26 209.547 553.187 208.82 554.44 207.38C555.694 205.927 556.354 203.787 556.42 200.96C556.46 199.293 556.027 198.053 555.12 197.24C554.214 196.413 552.807 196 550.9 196C550.407 196 549.807 196.04 549.1 196.12C548.407 196.187 547.807 196.28 547.3 196.4L545.64 209.28C545.974 209.36 546.434 209.427 547.02 209.48C547.62 209.533 548.167 209.56 548.66 209.56ZM567.407 223.32C565.354 223.32 563.814 222.573 562.787 221.08C561.774 219.573 561.267 217.513 561.267 214.9C561.267 212.927 561.56 211.073 562.147 209.34C562.747 207.593 563.6 206.053 564.707 204.72C565.827 203.387 567.16 202.34 568.707 201.58C570.254 200.82 571.987 200.44 573.907 200.44C574.574 200.44 575.32 200.507 576.147 200.64C576.974 200.773 577.72 200.933 578.387 201.12L580.847 200.44L577.767 223H573.927L574.247 219.12C573.447 220.293 572.46 221.287 571.287 222.1C570.127 222.913 568.834 223.32 567.407 223.32ZM568.367 220.08C568.994 220.08 569.594 219.94 570.167 219.66C570.754 219.367 571.307 218.98 571.827 218.5C572.36 218.007 572.854 217.447 573.307 216.82C573.774 216.18 574.194 215.52 574.567 214.84L576.127 203.84C575.26 203.547 574.334 203.4 573.347 203.4C571.68 203.4 570.274 203.973 569.127 205.12C567.98 206.267 567.127 207.687 566.567 209.38C566.007 211.06 565.727 212.74 565.727 214.42C565.727 215.353 565.8 216.253 565.947 217.12C566.094 217.987 566.354 218.7 566.727 219.26C567.114 219.807 567.66 220.08 568.367 220.08ZM584.06 223L587.1 200.72H591.22L590.82 205.04C591.967 203.667 593.274 202.56 594.74 201.72C596.22 200.867 597.72 200.44 599.24 200.44C600.747 200.44 601.874 200.88 602.62 201.76C603.38 202.64 603.76 204.093 603.76 206.12C603.76 206.427 603.727 206.887 603.66 207.5C603.607 208.113 603.52 208.88 603.4 209.8C603.28 210.707 603.134 211.767 602.96 212.98C602.92 213.313 602.874 213.687 602.82 214.1C602.767 214.513 602.7 214.993 602.62 215.54C602.54 216.087 602.447 216.72 602.34 217.44C602.234 218.147 602.107 218.96 601.96 219.88C601.814 220.787 601.647 221.827 601.46 223H597.12C597.174 222.6 597.26 221.96 597.38 221.08C597.514 220.187 597.68 219.067 597.88 217.72C598.08 216.36 598.314 214.78 598.58 212.98C598.82 211.313 599 209.953 599.12 208.9C599.24 207.847 599.3 207.04 599.3 206.48C599.3 205.6 599.147 205.007 598.84 204.7C598.547 204.393 598.047 204.24 597.34 204.24C596.834 204.24 596.254 204.393 595.6 204.7C594.96 204.993 594.307 205.387 593.64 205.88C592.974 206.36 592.347 206.88 591.76 207.44C591.174 208 590.687 208.54 590.3 209.06L588.38 223H584.06ZM615.651 223.32C613.878 223.32 612.405 222.913 611.231 222.1C610.058 221.273 609.191 220.2 608.631 218.88C608.085 217.56 607.818 216.113 607.831 214.54C607.845 211.98 608.378 209.593 609.431 207.38C610.445 205.233 611.838 203.54 613.611 202.3C615.385 201.06 617.398 200.44 619.651 200.44C620.878 200.44 621.905 200.673 622.731 201.14C623.558 201.607 624.185 202.213 624.611 202.96C625.038 203.707 625.251 204.507 625.251 205.36C625.251 206.787 624.878 208.053 624.131 209.16C623.398 210.267 622.405 211.213 621.151 212C619.911 212.787 618.525 213.413 616.991 213.88C615.471 214.347 613.931 214.66 612.371 214.82C612.371 214.927 612.371 215.033 612.371 215.14C612.371 215.247 612.371 215.353 612.371 215.46C612.398 216.78 612.711 217.873 613.311 218.74C613.925 219.607 614.918 220.04 616.291 220.04C616.985 220.04 617.698 219.92 618.431 219.68C619.165 219.427 619.898 219.067 620.631 218.6C621.365 218.133 622.071 217.573 622.751 216.92L623.931 219.26C623.625 219.687 623.158 220.14 622.531 220.62C621.905 221.087 621.191 221.527 620.391 221.94C619.591 222.353 618.778 222.687 617.951 222.94C617.125 223.193 616.358 223.32 615.651 223.32ZM612.451 212C613.371 211.973 614.325 211.793 615.311 211.46C616.298 211.113 617.218 210.653 618.071 210.08C618.938 209.507 619.638 208.853 620.171 208.12C620.705 207.373 620.971 206.58 620.971 205.74C620.971 204.927 620.778 204.347 620.391 204C620.005 203.653 619.438 203.48 618.691 203.48C618.118 203.48 617.578 203.593 617.071 203.82C616.565 204.033 616.085 204.367 615.631 204.82C614.725 205.727 613.998 206.847 613.451 208.18C612.905 209.513 612.571 210.787 612.451 212ZM628.941 222.94L633.281 191.02H637.601L633.261 222.94H628.941Z" fill="#A1A1A1"/>
<defs>
<filter id="filter0_d_16_4" x="341.791" y="19.56" width="332.141" height="83.08" filterUnits="userSpaceOnUse" color-interpolation-filters="sRGB">
<feFlood flood-opacity="0" result="BackgroundImageFix"/>
<feColorMatrix in="SourceAlpha" type="matrix" values="0 0 0 0 0 0 0 0 0 0 0 0 0 0 0 0 0 0 127 0" result="hardAlpha"/>
<feOffset dy="5"/>
<feGaussianBlur stdDeviation="2"/>
<feComposite in2="hardAlpha" operator="out"/>
<feColorMatrix type="matrix" values="0 0 0 0 0.0313726 0 0 0 0 0.568627 0 0 0 0 0.698039 0 0 0 0.25 0"/>
<feBlend mode="normal" in2="BackgroundImageFix" result="effect1_dropShadow_16_4"/>
<feBlend mode="normal" in="SourceGraphic" in2="effect1_dropShadow_16_4" result="shape"/>
</filter>
<linearGradient id="paint0_linear_16_4" x1="388" y1="173" x2="662" y2="173" gradientUnits="userSpaceOnUse">
<stop stop-color="#00DDC5"/>
<stop offset="1" stop-color="#0891B2"/>
</linearGradient>
</defs>
</svg>
