<?xml version="1.0" ?><!DOCTYPE svg  PUBLIC '-//W3C//DTD SVG 1.1//EN'  'http://www.w3.org/Graphics/SVG/1.1/DTD/svg11.dtd'><svg height="512px" style="enable-background:new 0 0 512 512;" version="1.1" viewBox="0 0 512 512" width="512px" xml:space="preserve" xmlns="http://www.w3.org/2000/svg" xmlns:xlink="http://www.w3.org/1999/xlink"><g id="_x35_00_x2C__classroom__x2C__teacher_x2C__board_x2C__education"><g><path d="M445.14,61.86C448.76,65.48,451,70.48,451,76c0,11.05-8.95,20-20,20H81    c-5.52,0-10.52-2.24-14.14-5.86C63.24,86.52,61,81.52,61,76c0-11.05,8.95-20,20-20h350C436.52,56,441.52,58.24,445.14,61.86z" style="fill:#FFEBBE;"/><path d="M66,86.333c0-11.05,8.95-20,20-20h350c5.52,0,10.52,2.24,14.14,5.86    c0.205,0.206,0.39,0.431,0.586,0.645c-0.678-4.251-2.673-8.066-5.586-10.979C441.52,58.24,436.52,56,431,56H81    c-11.05,0-20,8.95-20,20c0,5.207,2.01,9.936,5.274,13.496C66.109,88.463,66,87.412,66,86.333z" style="fill:#E5D0A8;"/><path d="M81,136V96h350v250H321H191H81V136z" style="fill:#57606F;"/><polygon points="91.167,146.667 91.167,106.667 431,106.667 431,96 81,96 81,136 81,346 91.167,346   " style="fill:#414A56;"/><polygon points="321,346 321,386 266.62,386 256,386 245.38,386 191,386 191,346   " style="fill:#FF7979;"/><polygon points="199.833,355.166 321,355.166 321,346 191,346 191,386 199.833,386   " style="fill:#D65B5B;"/><path d="M391,234.35v10.79h-41.38v-7.95l7.54-6.56c12.74-10.96,18.939-17.26,19.12-23.82c0-4.58-2.87-8.21-9.61-8.21    c-5.02,0-9.42,2.42-12.47,4.67l-3.86-9.41c4.391-3.2,11.22-5.79,19.12-5.79c13.19,0,20.46,7.43,20.46,17.61    c0,9.41-7.09,16.92-15.53,24.18l-5.38,4.31v0.18H391z"/><path d="M343.52,188.59l-2.779,10.45c-2.79-1.13-6.65-2.16-11.49-2.16c-10.87,0-19.3,6.3-19.3,19.25    c0,11.65,7.18,18.99,19.38,18.99c4.13,0,8.71-0.86,11.41-1.9l2.06,10.28c-2.51,1.2-8.17,2.5-15.53,2.5    c-20.92,0-31.689-12.52-31.689-29.09c0-19.86,14.72-30.91,33.04-30.91C335.71,186,341.1,187.38,343.52,188.59z"/><path d="M284.55,186.95l3.32,58.19h-13.38l-0.891-22.28c-0.27-6.99-0.54-15.45-0.54-23.91h-0.27c-1.89,7.42-4.4,15.71-6.73,22.53    l-7.369,22.71H248.01l-6.46-22.54c-1.98-6.82-4.04-15.1-5.48-22.7h-0.18c-0.36,7.86-0.63,16.83-1.07,24.09l-1.08,22.1h-12.66    l3.86-58.19h18.23l5.92,19.42c1.88,6.74,3.77,13.99,5.12,20.81h0.27c1.7-6.73,3.77-14.42,5.74-20.89l6.46-19.34H284.55z"/><rect height="8.03" width="46.32" x="166.6" y="226.92"/><rect height="8.03" width="46.32" x="166.6" y="209.05"/><polygon points="159.6,234.35 159.6,245.14 121,245.14 121,186.95 158.34,186.95 158.34,197.74 134.73,197.74 134.73,209.83     157,209.83 157,220.53 134.73,220.53 134.73,234.35   "/><path d="M191,351H81c-2.761,0-5-2.238-5-5V96c0-2.761,2.239-5,5-5s5,2.239,5,5v245h105c2.761,0,5,2.238,5,5S193.761,351,191,351z"/><path d="M431,351H321c-2.762,0-5-2.238-5-5s2.238-5,5-5h105V96c0-2.761,2.238-5,5-5s5,2.239,5,5v250    C436,348.762,433.762,351,431,351z"/><path d="M431,101H81c-6.674,0-12.952-2.601-17.675-7.324C58.601,88.952,56,82.674,56,76c0-13.785,11.215-25,25-25h350    c6.674,0,12.951,2.601,17.675,7.324C453.398,63.048,456,69.325,456,76C456,89.785,444.785,101,431,101z M81,61    c-8.271,0-15,6.729-15,15c0,4.004,1.561,7.77,4.396,10.605C73.23,89.439,76.996,91,81,91h350c8.271,0,15-6.729,15-15    c0-4.004-1.562-7.77-4.396-10.604C438.77,62.561,435.003,61,431,61H81z"/><path d="M321,391H191c-2.761,0-5-2.238-5-5v-40c0-2.762,2.239-5,5-5h130c2.762,0,5,2.238,5,5v40C326,388.762,323.762,391,321,391z     M196,381h120v-30H196V381z"/><path d="M171.001,461c-1.331,0-2.658-0.527-3.642-1.573c-1.893-2.011-1.796-5.176,0.214-7.067l74.38-70    c2.01-1.894,5.175-1.798,7.068,0.214c1.893,2.011,1.796,5.176-0.214,7.067l-74.38,70C173.461,460.55,172.23,461,171.001,461z"/><path d="M340.999,461c-1.229,0-2.46-0.45-3.426-1.359l-74.38-70c-2.011-1.892-2.106-5.057-0.215-7.067    c1.894-2.011,5.057-2.108,7.068-0.214l74.38,70c2.011,1.892,2.106,5.057,0.214,7.067C343.657,460.472,342.329,461,340.999,461z"/><path d="M256,461c-2.761,0-5-2.238-5-5v-70c0-2.762,2.239-5,5-5c2.762,0,5,2.238,5,5v70C261,458.762,258.762,461,256,461z"/><path d="M331,141H81c-2.761,0-5-2.239-5-5s2.239-5,5-5h250c2.762,0,5,2.239,5,5S333.762,141,331,141z"/><path d="M371,141h-10c-2.762,0-5-2.239-5-5s2.238-5,5-5h10c2.762,0,5,2.239,5,5S373.762,141,371,141z"/></g></g><g id="Layer_1"/></svg>