<svg width="54" height="54" viewBox="0 0 54 54" fill="none" xmlns="http://www.w3.org/2000/svg">
<path d="M54 0H0V27H54V0Z" fill="white"/>
<path d="M19.953 42.66C20.8645 41.4586 21.4225 40.0265 21.5641 38.5251C21.7058 37.0237 21.4255 35.5126 20.7548 34.1618C20.0841 32.8111 19.0496 31.6744 17.7679 30.8798C16.4862 30.0852 15.008 29.6642 13.5 29.6642C11.9919 29.6642 10.5137 30.0852 9.232 30.8798C7.95025 31.6744 6.91579 32.8111 6.24509 34.1618C5.5744 35.5126 5.2941 37.0237 5.43577 38.5251C5.57744 40.0265 6.13544 41.4586 7.04695 42.66C5.70066 43.6632 4.6068 44.9664 3.85221 46.4662C3.09762 47.966 2.70309 49.6211 2.69995 51.3V54H24.2999V51.3C24.2968 49.6211 23.9023 47.966 23.1477 46.4662C22.3931 44.9664 21.2992 43.6632 19.953 42.66Z" fill="white"/>
<path d="M46.9529 42.66C47.8645 41.4586 48.4225 40.0265 48.5641 38.5251C48.7058 37.0237 48.4255 35.5126 47.7548 34.1618C47.0841 32.8111 46.0496 31.6744 44.7679 30.8798C43.4862 30.0852 42.008 29.6642 40.5 29.6642C38.9919 29.6642 37.5137 30.0852 36.232 30.8798C34.9503 31.6744 33.9158 32.8111 33.2451 34.1618C32.5744 35.5126 32.2941 37.0237 32.4358 38.5251C32.5774 40.0265 33.1354 41.4586 34.0469 42.66C32.7007 43.6632 31.6068 44.9664 30.8522 46.4662C30.0976 47.966 29.7031 49.6211 29.7 51.3V54H51.2999V51.3C51.2968 49.6211 50.9023 47.966 50.1477 46.4662C49.3931 44.9664 48.2992 43.6632 46.9529 42.66Z" fill="white"/>
</svg>
