<svg width="432" height="75" viewBox="0 0 432 75" fill="none" xmlns="http://www.w3.org/2000/svg">
<path d="M0.697443 73L12.7713 0.272725H28.1477L22.8565 32.3395H23.8153L55.2784 0.272725H73.7088L41.429 32.8366L61.9545 73H43.5597L28.7159 43.0994L19.554 52.4034L16.0739 73H0.697443ZM104.79 49.7756L110.01 18.4545H125.138L116.047 73H101.523L103.157 63.0923H102.588C100.908 66.2884 98.4573 68.857 95.2376 70.7983C92.0179 72.7396 88.3602 73.7102 84.2646 73.7102C80.6187 73.7102 77.5411 72.8816 75.0316 71.2244C72.5458 69.5672 70.7821 67.2116 69.7404 64.1577C68.6987 61.1037 68.5212 57.446 69.2077 53.1847L75.0316 18.4545H90.1594L84.8327 50.4858C84.3356 53.7055 84.7854 56.2505 86.1822 58.1207C87.579 59.991 89.7096 60.9261 92.5742 60.9261C94.3971 60.9261 96.1609 60.5118 97.8654 59.6832C99.5936 58.831 101.085 57.5762 102.34 55.919C103.595 54.2618 104.411 52.214 104.79 49.7756ZM129.036 60.2159L131.024 48.1065L169.341 0.272725H179.781L177.011 17.0341H170.797L146.649 47.3253L146.578 47.8935H189.689L187.665 60.2159H129.036ZM161.812 73L164.582 56.4872L165.754 51.196L174.17 0.272725H188.588L176.514 73H161.812ZM204.071 73.9233C201.68 73.9233 199.715 73.0947 198.176 71.4375C196.661 69.7803 195.974 67.768 196.116 65.4006C196.282 63.0568 197.265 61.08 199.064 59.4702C200.887 57.8366 202.982 57.0199 205.349 57.0199C207.622 57.0199 209.54 57.8366 211.102 59.4702C212.665 61.1037 213.351 63.0805 213.162 65.4006C213.044 66.9631 212.535 68.3954 211.635 69.6974C210.759 70.9759 209.646 72.0057 208.297 72.7869C206.947 73.5445 205.539 73.9233 204.071 73.9233ZM248.842 74.0653C243.231 74.0653 238.615 72.8816 234.993 70.5142C231.394 68.1231 228.873 64.8087 227.429 60.571C226.008 56.3333 225.76 51.4564 226.683 45.9403C227.583 40.3532 229.465 35.4527 232.329 31.2386C235.194 27.0009 238.828 23.6984 243.231 21.331C247.658 18.9399 252.63 17.7443 258.146 17.7443C262.904 17.7443 266.929 18.6084 270.22 20.3366C273.511 22.0649 275.925 24.4915 277.464 27.6165C279.003 30.7415 279.524 34.411 279.027 38.625H264.787C264.81 35.9261 264.112 33.7363 262.691 32.0554C261.271 30.3745 259.188 29.5341 256.441 29.5341C254.074 29.5341 251.896 30.1733 249.907 31.4517C247.942 32.7064 246.273 34.5412 244.9 36.956C243.551 39.3707 242.604 42.2945 242.059 45.7273C241.491 49.2074 241.479 52.1667 242.024 54.6051C242.568 57.0436 243.61 58.902 245.149 60.1804C246.688 61.4588 248.629 62.098 250.973 62.098C252.725 62.098 254.346 61.7429 255.838 61.0327C257.353 60.3224 258.679 59.2926 259.815 57.9432C260.951 56.5701 261.827 54.9247 262.443 53.0071H276.718C275.748 57.1974 273.984 60.867 271.427 64.0156C268.894 67.1643 265.71 69.6264 261.875 71.402C258.039 73.1776 253.695 74.0653 248.842 74.0653ZM307.746 74.0653C302.183 74.0653 297.578 72.8816 293.933 70.5142C290.287 68.1231 287.718 64.8087 286.227 60.571C284.759 56.3097 284.487 51.3499 285.41 45.6918C286.309 40.1046 288.18 35.2159 291.021 31.0256C293.862 26.8352 297.472 23.58 301.852 21.2599C306.231 18.9162 311.167 17.7443 316.66 17.7443C322.2 17.7443 326.792 18.9399 330.438 21.331C334.084 23.6984 336.653 27.0128 338.144 31.2741C339.636 35.5355 339.92 40.4953 338.996 46.1534C338.073 51.7169 336.179 56.5938 333.315 60.7841C330.45 64.9744 326.84 68.2415 322.484 70.5852C318.128 72.9053 313.215 74.0653 307.746 74.0653ZM309.238 62.3466C311.795 62.3466 314.056 61.6245 316.021 60.1804C318.009 58.7126 319.655 56.724 320.957 54.2145C322.282 51.6813 323.206 48.8168 323.727 45.6207C324.247 42.4721 324.283 39.6785 323.833 37.2401C323.383 34.7779 322.436 32.8366 320.992 31.4162C319.572 29.9957 317.619 29.2855 315.133 29.2855C312.576 29.2855 310.303 30.0194 308.315 31.4872C306.326 32.9313 304.681 34.92 303.379 37.4531C302.076 39.9863 301.165 42.8627 300.644 46.0824C300.147 49.2074 300.112 52.0009 300.538 54.4631C300.964 56.9015 301.899 58.831 303.343 60.2514C304.787 61.6482 306.752 62.3466 309.238 62.3466ZM344.465 73L353.556 18.4545H367.938L366.376 28.0781H366.979C368.637 24.8821 370.945 22.3608 373.904 20.5142C376.887 18.6676 380.237 17.7443 383.954 17.7443C387.647 17.7443 390.654 18.6795 392.974 20.5497C395.317 22.3963 396.667 24.9058 397.022 28.0781H397.59C399.2 24.9531 401.627 22.4555 404.87 20.5852C408.113 18.6913 411.736 17.7443 415.737 17.7443C420.779 17.7443 424.638 19.366 427.313 22.6094C429.988 25.8527 430.829 30.4219 429.835 36.3168L423.727 73H408.599L414.281 39.2997C414.73 36.2457 414.281 33.973 412.931 32.4815C411.582 30.9664 409.7 30.2088 407.285 30.2088C404.539 30.2088 402.254 31.0848 400.431 32.8366C398.608 34.5649 397.484 36.8494 397.058 39.6903L391.411 73H376.745L382.498 38.9801C382.9 36.2812 382.462 34.1506 381.184 32.5881C379.929 31.0019 378.047 30.2088 375.538 30.2088C373.88 30.2088 372.306 30.6349 370.815 31.4872C369.347 32.3158 368.104 33.4877 367.086 35.0028C366.068 36.4943 365.405 38.2462 365.097 40.2585L359.558 73H344.465Z" fill="url(#paint0_linear_25_14)"/>
<defs>
<linearGradient id="paint0_linear_25_14" x1="-126.175" y1="165" x2="216.5" y2="165" gradientUnits="userSpaceOnUse">
<stop stop-color="#00A1FE"/>
<stop offset="1" stop-color="#3F47F4"/>
</linearGradient>
</defs>
</svg>
