<svg width="373" height="136" viewBox="0 0 373 136" fill="none" xmlns="http://www.w3.org/2000/svg">
<path d="M54.8168 56.4C55.4835 56.7333 55.9835 57.1667 56.3168 57.7C56.7168 58.2333 56.9168 59 56.9168 60C56.9168 61.2667 56.4168 62.3 55.4168 63.1C54.4835 63.8333 53.3835 64.2 52.1168 64.2C50.6501 64.2 48.9835 63.8333 47.1168 63.1C43.3835 61.4333 39.7168 58.3667 36.1168 53.9C32.5835 49.3667 28.3168 42.8667 23.3168 34.4C19.5168 37.3333 15.6501 40.0667 11.7168 42.6C11.7168 44 11.7501 45.6333 11.8168 47.5C11.9501 49.3 12.0168 50.6333 12.0168 51.5C12.1501 55.3667 12.2168 57.9333 12.2168 59.2C12.2168 60.3333 11.8501 61.4333 11.1168 62.5C10.3835 63.5 9.28346 64 7.8168 64C5.68346 64 4.15013 63.6667 3.2168 63C2.28346 62.2667 1.7168 61.2333 1.5168 59.9C0.983464 56.5667 0.716797 53.3667 0.716797 50.3C0.716797 46.8333 0.983464 41.8333 1.5168 35.3C2.05013 29.0333 2.3168 24.3333 2.3168 21.2C2.3168 20 2.25013 18.2667 2.1168 16C2.05013 14.2 1.85013 12.5333 1.5168 11C1.25013 8.86666 1.1168 7.36666 1.1168 6.5C1.1168 4.36666 1.58346 2.83333 2.5168 1.89999C3.45013 0.966662 4.88346 0.499995 6.8168 0.499995C8.28346 0.499995 9.48346 0.933329 10.4168 1.8C11.4168 2.6 11.9835 3.7 12.1168 5.1C12.4501 10.7667 12.6168 15.1333 12.6168 18.2C12.5501 19.8667 12.4168 22.2667 12.2168 25.4C12.0835 28.4667 11.9501 30.4 11.8168 31.2C14.0835 29.9333 18.5168 26.3 25.1168 20.3C31.7835 14.2333 36.5168 9.46667 39.3168 6L40.6168 4.5C41.6835 3.1 42.5835 2.13333 43.3168 1.6C44.0501 1.06666 45.0501 0.799997 46.3168 0.799997C47.5835 0.799997 48.7168 1.23333 49.7168 2.1C50.7835 2.9 51.3168 3.86666 51.3168 5C51.3168 7.2 50.1835 9.43333 47.9168 11.7C42.3835 17.4333 36.8501 22.7667 31.3168 27.7C39.1168 42.3 46.9501 51.8667 54.8168 56.4ZM59.6168 30.3C59.0835 30.3 58.5835 30.1 58.1168 29.7C57.7168 29.2333 57.5168 28.7 57.5168 28.1C57.5168 26.5667 58.1835 25.1333 59.5168 23.8C59.9168 23.6 60.7168 23.2667 61.9168 22.8C63.1168 22.3333 64.1835 22.1 65.1168 22.1C67.6501 22.1 69.7168 22.8 71.3168 24.2C72.9168 25.5333 73.7168 27.4667 73.7168 30C73.7168 30.7333 73.5835 32.3 73.3168 34.7C73.0501 37.5 72.9168 39.6667 72.9168 41.2C72.9168 45.8667 73.5501 49.6333 74.8168 52.5C75.2835 53.4333 76.0168 54.1667 77.0168 54.7C78.0168 55.2333 78.9168 55.5 79.7168 55.5C81.6501 55.5 83.2168 55.1667 84.4168 54.5C85.6168 53.8333 86.9168 52.7667 88.3168 51.3C89.7168 49.8333 90.6168 48.1667 91.0168 46.3C91.4835 44.4333 91.8168 41.8667 92.0168 38.6C92.1501 36.4667 92.2835 34.9 92.4168 33.9C92.7501 30.7 92.9168 27.9667 92.9168 25.7C92.9168 24.2333 93.3168 23.0333 94.1168 22.1C94.9168 21.1 96.0168 20.6 97.4168 20.6C98.2168 20.6 99.1168 20.8667 100.117 21.4C101.183 21.8667 101.883 22.4333 102.217 23.1C102.617 23.7667 102.817 24.8667 102.817 26.4C102.817 27.2 102.717 27.9667 102.517 28.7C102.05 30.3667 101.817 32.3667 101.817 34.7L101.917 39.9C101.917 44.6333 102.25 48.1333 102.917 50.4C103.25 51.4667 103.717 52.5667 104.317 53.7C104.917 54.7667 105.483 55.6667 106.017 56.4C107.35 57.8667 108.217 58.9 108.617 59.5C109.017 60.0333 109.217 60.5667 109.217 61.1C109.217 61.9 108.817 62.6667 108.017 63.4C107.283 64.0667 106.483 64.4 105.617 64.4C103.15 64.4 101.017 63.5667 99.2168 61.9C97.4168 60.2333 96.0835 58.0667 95.2168 55.4C92.9501 58 90.8501 60.1 88.9168 61.7C87.5835 62.6333 85.9501 63.3333 84.0168 63.8C82.0835 64.2 80.1501 64.4 78.2168 64.4C75.6168 64.4 72.9835 63.3333 70.3168 61.2C67.6501 59.0667 65.8501 56.6 64.9168 53.8C64.8501 53.6667 64.6501 53.1333 64.3168 52.2C64.0501 51.2667 63.9168 49.8667 63.9168 48C63.9168 45.5333 64.0501 42.4333 64.3168 38.7C64.5168 36.3 64.6168 34.1 64.6168 32.1C64.6168 31.5 64.3835 31 63.9168 30.6C63.5168 30.2 63.0501 30 62.5168 30C62.1168 30 61.6501 30.0667 61.1168 30.2C60.6501 30.2667 60.1501 30.3 59.6168 30.3ZM135.09 4C135.09 7.26667 134.49 11.0667 133.29 15.4C132.157 19.6667 130.49 24.9333 128.29 31.2L125.99 38.1C127.124 38.3 128.29 38.4 129.49 38.4C131.557 38.4 134.657 38.2 138.79 37.8C142.924 37.4 145.89 37.2 147.69 37.2L147.59 26.2C147.457 18.6 147.39 13 147.39 9.4C147.39 4.66666 148.957 2.3 152.09 2.3C154.557 2.3 156.124 2.93333 156.79 4.2C157.524 5.46666 157.89 7.36666 157.89 9.9C157.89 12.5 157.69 16.5333 157.29 22C157.224 23.0667 157.124 24.8333 156.99 27.3C156.857 29.7667 156.79 31.9 156.79 33.7L156.89 36.9L158.89 36.8C160.49 36.6667 161.724 36.6 162.59 36.6C164.19 36.6 165.724 37.1333 167.19 38.2C168.657 39.2 169.39 40.4 169.39 41.8C169.39 43.4667 169.124 44.7667 168.59 45.7C168.124 46.6333 167.557 47.1 166.89 47.1C165.757 47.1 164.324 46.9667 162.59 46.7C162.19 46.7 161.59 46.6667 160.79 46.6C159.99 46.4667 159.224 46.4 158.49 46.4L156.79 46.5L156.89 60C156.89 61.4 156.424 62.4667 155.49 63.2C154.557 63.9333 153.49 64.3 152.29 64.3C150.824 64.3 149.524 63.8333 148.39 62.9C147.257 61.9667 146.69 60.8 146.69 59.4C146.69 54.9333 146.757 51.4333 146.89 48.9C146.957 48.3 146.99 47.5667 146.99 46.7C144.99 46.6333 141.524 46.8667 136.59 47.4C131.924 47.9333 128.39 48.2 125.99 48.2C122.924 48.2 120.324 47.7667 118.19 46.9C116.124 46.0333 115.09 44.6667 115.09 42.8C115.09 41 115.457 38.8 116.19 36.2C116.924 33.6 118.024 30.1 119.49 25.7C120.157 23.9667 120.657 22.5333 120.99 21.4C122.19 18 123.09 15.1333 123.69 12.8C124.29 10.4 124.957 7.5 125.69 4.1C125.957 3.03333 126.524 2.23333 127.39 1.7C128.257 1.16666 129.257 0.899996 130.39 0.899996C131.59 0.899996 132.657 1.2 133.59 1.8C134.59 2.33333 135.09 3.06666 135.09 4ZM190.749 58.5C190.749 60.1667 190.082 61.7333 188.749 63.2C187.415 64.6 185.949 65.3 184.349 65.3C182.482 65.3 180.782 64.8 179.249 63.8C177.715 62.7333 176.949 61.4 176.949 59.8C176.949 57.2667 177.415 55.4 178.349 54.2C179.349 53 180.815 52.4 182.749 52.4C185.015 52.4 186.915 52.9667 188.449 54.1C189.982 55.1667 190.749 56.6333 190.749 58.5ZM236.958 30.6C236.958 33.5333 235.458 35 232.458 35C231.458 35 230.625 34.7667 229.958 34.3C229.292 33.8333 228.558 33.1333 227.758 32.2C225.758 30 224.025 28.9 222.558 28.9C220.625 28.9 218.725 29.4667 216.858 30.6C215.058 31.7333 213.592 33.3333 212.458 35.4C211.325 37.4667 210.758 39.7667 210.758 42.3C210.758 45.1 211.292 47.4333 212.358 49.3C213.492 51.1667 215.225 52.7667 217.558 54.1C218.425 54.5667 219.425 54.9333 220.558 55.2C221.758 55.4667 222.792 55.6 223.658 55.6C225.592 55.6 228.025 54.8333 230.958 53.3C232.025 52.7667 232.925 52.3667 233.658 52.1C234.392 51.8333 235.158 51.7 235.958 51.7C236.692 51.7 237.525 52.0333 238.458 52.7C239.392 53.3667 239.858 54.2 239.858 55.2C239.858 57.2 238.925 58.9 237.058 60.3C235.192 61.6333 232.892 62.6667 230.158 63.4C227.492 64.0667 224.925 64.4 222.458 64.4C218.525 64.4 214.858 63.5 211.458 61.7C208.125 59.9 205.458 57.4333 203.458 54.3C201.458 51.1 200.458 47.5 200.458 43.5C200.458 39.2333 201.425 35.3333 203.358 31.8C205.292 28.2667 207.892 25.5 211.158 23.5C214.425 21.5 217.992 20.5 221.858 20.5C224.058 20.5 226.325 20.9 228.658 21.7C230.992 22.5 232.958 23.6667 234.558 25.2C236.158 26.7333 236.958 28.5333 236.958 30.6ZM287.733 31.9C288.267 32.8333 288.7 34.2 289.033 36C289.367 37.7333 289.533 39.3 289.533 40.7C289.533 42.5 289.333 44.5 288.933 46.7C288.533 48.9 288.167 50.6 287.833 51.8C283.233 60.2 276.433 64.4 267.433 64.4C264.1 64.4 260.7 63.3 257.233 61.1C253.767 58.9 251.367 56.3667 250.033 53.5C248.233 47.8333 247.333 44.2 247.333 42.6C247.333 39.9333 247.9 37.1 249.033 34.1C250.233 31.1 251.733 28.5 253.533 26.3C254.733 24.7667 256.8 23.4667 259.733 22.4C262.667 21.2667 265.333 20.7 267.733 20.7C272.4 20.7 276.333 21.6 279.533 23.4C282.8 25.1333 285.533 27.9667 287.733 31.9ZM279.033 48C279.367 47.3333 279.533 45.1 279.533 41.3C279.533 39.3667 279.167 37.4667 278.433 35.6C277.767 33.7333 276.767 32.1333 275.433 30.8C275.3 30.6667 274.933 30.4667 274.333 30.2C273.733 29.8667 272.9 29.5667 271.833 29.3C270.833 28.9667 269.667 28.8 268.333 28.8C264.6 28.8 261.867 30.3 260.133 33.3C258.4 36.3 257.533 39.7 257.533 43.5C257.533 44.1 257.733 45.3333 258.133 47.2C258.533 49.0667 258.833 50.2667 259.033 50.8C259.567 51.7333 260.633 52.8333 262.233 54.1C263.9 55.3 265.7 55.9 267.633 55.9C270.633 55.9 273 55.2 274.733 53.8C276.533 52.3333 277.967 50.4 279.033 48ZM299.014 29.6C297.348 28.2 296.514 26.5667 296.514 24.7C296.514 23.7667 296.981 22.9333 297.914 22.2C298.848 21.4 299.981 21 301.314 21C303.714 21 305.681 21.6333 307.214 22.9C308.748 24.1667 310.081 26 311.214 28.4C312.614 25.8 314.381 23.9 316.514 22.7C318.714 21.4333 321.481 20.8 324.814 20.8C326.814 20.8 328.414 21.0667 329.614 21.6C330.881 22.0667 331.914 22.7667 332.714 23.7C333.514 24.5667 334.514 25.9 335.714 27.7C337.448 25.5667 339.614 23.9 342.214 22.7C344.881 21.5 347.614 20.9 350.414 20.9C353.681 20.9 356.648 22.2667 359.314 25C362.048 27.7333 363.881 30.8333 364.814 34.3C365.148 35.7667 365.381 39.2333 365.514 44.7L365.914 50.5C366.248 54.0333 367.381 56.1333 369.314 56.8C370.248 57.0667 371.014 57.4 371.614 57.8C372.281 58.1333 372.614 58.5 372.614 58.9C372.748 60.5 372.381 61.6667 371.514 62.4C370.914 62.8 370.081 63.2333 369.014 63.7C367.948 64.1667 367.114 64.4 366.514 64.4C362.914 64.4 360.348 63.1 358.814 60.5C357.814 58.7667 357.181 56.8 356.914 54.6C356.648 52.3333 356.514 49.2667 356.514 45.4C356.514 41.2667 356.014 37.7333 355.014 34.8C354.014 31.8 351.748 30.3 348.214 30.3C346.948 30.3 345.681 30.7 344.414 31.5C343.214 32.2333 342.348 33.1667 341.814 34.3C340.881 36.1 340.248 38.0667 339.914 40.2C339.581 42.2667 339.414 44.6667 339.414 47.4C339.414 49.1333 339.514 50.9 339.714 52.7C339.714 53.2333 339.748 54.1 339.814 55.3C339.948 56.4333 340.014 57.4667 340.014 58.4C340.014 60.0667 339.681 61.5 339.014 62.7C338.414 63.8333 337.348 64.4 335.814 64.4C332.148 64.4 330.214 62.4667 330.014 58.6C330.014 55.8667 330.048 54.4 330.114 54.2V49.9C330.114 47.5 330.014 45.1667 329.814 42.9C329.614 40.6333 329.381 38.9333 329.114 37.8C328.514 35.6 327.714 33.9 326.714 32.7C325.714 31.5 324.181 30.9 322.114 30.9C320.714 30.9 319.414 31.2333 318.214 31.9C317.014 32.5667 315.981 33.5 315.114 34.7C313.848 36.7 313.014 39.1333 312.614 42C312.214 45.6667 311.914 48.5667 311.714 50.7C311.581 52.7667 311.514 55.1667 311.514 57.9C311.514 59.8333 311.181 61.4 310.514 62.6C309.914 63.8 308.748 64.4 307.014 64.4C305.748 64.4 304.414 64.0667 303.014 63.4C301.681 62.6667 301.014 61.7 301.014 60.5C301.014 59.2333 301.148 57.9667 301.414 56.7C302.014 52.9 302.314 46.4333 302.314 37.3C302.314 35.8333 301.981 34.4 301.314 33C300.714 31.5333 299.948 30.4 299.014 29.6ZM9.83398 113.4C9.83398 112.133 10.0673 110.867 10.534 109.6C11.0007 108.3 11.6173 107.117 12.384 106.05C13.1507 104.983 14.3673 104.117 16.034 103.45C17.7007 102.75 19.184 102.4 20.484 102.4C21.8173 102.4 23.1673 102.583 24.534 102.95C25.934 103.317 26.9007 103.883 27.434 104.65C28.6673 106.383 29.284 108.083 29.284 109.75C29.284 110.65 29.084 111.417 28.684 112.05C28.3173 112.683 27.784 113.367 27.084 114.1C26.5173 114.7 25.6173 115.1 24.384 115.3C23.184 115.5 21.984 115.6 20.784 115.6C20.0173 115.6 19.084 115.533 17.984 115.4C16.884 115.233 15.8173 115.033 14.784 114.8C14.8507 115.467 15.0173 116.117 15.284 116.75C15.5507 117.383 15.8673 117.867 16.234 118.2C16.9007 118.833 17.584 119.233 18.284 119.4C19.0173 119.567 19.9507 119.65 21.084 119.65C22.284 119.65 23.4007 119.45 24.434 119.05C25.2673 118.75 25.9507 118.6 26.484 118.6C27.1173 118.6 27.6007 118.8 27.934 119.2C28.2673 119.567 28.434 120.05 28.434 120.65C28.434 121.483 27.9507 122.167 26.984 122.7C26.0173 123.233 24.9007 123.633 23.634 123.9C22.4007 124.133 21.4007 124.25 20.634 124.25C19.0673 124.25 17.5507 123.967 16.084 123.4C14.6173 122.833 13.4007 122.033 12.434 121C11.634 120.067 11.0007 118.95 10.534 117.65C10.0673 116.317 9.83398 114.9 9.83398 113.4ZM20.734 106.65C20.0007 106.65 19.2673 106.8 18.534 107.1C17.8007 107.367 17.2007 107.75 16.734 108.25C16.134 108.883 15.7173 109.4 15.484 109.8C15.284 110.167 15.1507 110.683 15.084 111.35C15.9173 111.617 17.6507 111.75 20.284 111.75C21.7173 111.75 22.8173 111.533 23.584 111.1C24.384 110.667 24.784 110.1 24.784 109.4C24.784 108.7 24.3507 108.067 23.484 107.5C22.6173 106.933 21.7007 106.65 20.734 106.65ZM54.0121 92.7C54.0121 93.0333 53.9288 93.95 53.7621 95.45C53.3954 99.1167 53.2121 102.833 53.2121 106.6C53.2121 109.9 53.2621 112.417 53.3621 114.15C53.4621 115.883 53.7121 117.217 54.1121 118.15C54.5121 119.05 55.1288 119.5 55.9621 119.5C57.5621 119.5 58.3621 120.033 58.3621 121.1C58.3621 121.8 58.0121 122.4 57.3121 122.9C56.6121 123.367 55.8454 123.6 55.0121 123.6C54.0121 123.6 53.0788 123.367 52.2121 122.9C51.3454 122.433 50.6621 121.717 50.1621 120.75C49.4621 121.783 48.4454 122.617 47.1121 123.25C45.8121 123.85 44.5454 124.15 43.3121 124.15C41.4121 124.15 39.7288 123.75 38.2621 122.95C36.7954 122.15 35.6621 121.067 34.8621 119.7C34.0621 118.3 33.6621 116.767 33.6621 115.1C33.6621 113.5 33.8454 111.967 34.2121 110.5C34.6121 109 35.1454 107.767 35.8121 106.8C36.7121 105.533 37.9121 104.533 39.4121 103.8C40.9454 103.033 42.4454 102.65 43.9121 102.65C44.8121 102.65 45.6621 102.833 46.4621 103.2C47.2621 103.533 47.9621 103.95 48.5621 104.45C48.5621 102.217 48.5454 100.817 48.5121 100.25V99.2C48.5121 96.1 48.7121 93.8333 49.1121 92.4C49.4788 91 50.3621 90.3 51.7621 90.3C52.5288 90.3 53.0954 90.4667 53.4621 90.8C53.8288 91.1333 54.0121 91.7667 54.0121 92.7ZM38.6121 115C38.6121 116.533 39.0454 117.767 39.9121 118.7C40.8121 119.633 41.8788 120.1 43.1121 120.1C44.8788 120.1 46.1788 119.55 47.0121 118.45C47.8788 117.35 48.3121 115.933 48.3121 114.2L48.2621 109.25C46.9621 107.817 45.6121 107.1 44.2121 107.1C43.2454 107.1 42.3288 107.35 41.4621 107.85C40.6288 108.317 39.9621 109.033 39.4621 110C38.8954 111.1 38.6121 112.767 38.6121 115ZM63.8 102.3C66 102.3 67.1 103.75 67.1 106.65C67.1 107.017 67.0667 107.833 67 109.1C66.9333 110.567 66.9 111.717 66.9 112.55C66.9 114.883 67.2167 116.767 67.85 118.2C68.0833 118.667 68.5 119.033 69.1 119.3C69.7333 119.567 70.2667 119.7 70.7 119.7C71.3667 119.7 71.9167 119.617 72.35 119.45C72.7833 119.283 73.1833 119.033 73.55 118.7C73.95 118.367 74.3333 118 74.7 117.6C75.3333 116.9 75.7333 116.1 75.9 115.2C76.1 114.267 76.2167 113.033 76.25 111.5C76.25 110.533 76.3 109.6 76.4 108.7C76.6 107.233 76.7 105.867 76.7 104.6C76.7 103.9 76.8833 103.317 77.25 102.85C77.65 102.35 78.2167 102.1 78.95 102.1C79.3167 102.1 79.75 102.233 80.25 102.5C80.7833 102.733 81.1333 103 81.3 103.3C81.5333 103.7 81.65 104.25 81.65 104.95C81.65 105.383 81.6 105.783 81.5 106.15C81.3333 106.65 81.25 107.283 81.25 108.05C81.25 108.45 81.2833 109.117 81.35 110.05C81.45 110.75 81.5 111.467 81.5 112.2C81.5 114.433 81.6667 116.083 82 117.15C82.3667 118.283 82.8667 119.283 83.5 120.15C84.1667 120.85 84.6167 121.367 84.85 121.7C85.0833 122 85.2 122.267 85.2 122.5C85.2 122.9 85 123.283 84.6 123.65C84.2 124.017 83.7833 124.2 83.35 124.2C82.1167 124.2 81.0333 123.783 80.1 122.95C79.2 122.083 78.5333 120.983 78.1 119.65C77.7333 120.083 77.25 120.617 76.65 121.25C76.05 121.883 75.4833 122.4 74.95 122.8C73.65 123.733 71.9833 124.2 69.95 124.2C69.1167 124.2 68.2 123.95 67.2 123.45C66.2333 122.95 65.35 122.3 64.55 121.5C63.75 120.667 63.2 119.783 62.9 118.85C62.8667 118.783 62.7667 118.517 62.6 118.05C62.4667 117.583 62.4 116.883 62.4 115.95L62.35 107.95C62.35 107.483 62.2333 106.75 62 105.75C61.8 105.083 61.7 104.583 61.7 104.25C61.7 103.683 61.8833 103.217 62.25 102.85C62.65 102.483 63.1667 102.3 63.8 102.3ZM104.495 108.85C103.995 108.85 103.562 108.733 103.195 108.5C102.862 108.233 102.512 107.883 102.145 107.45C101.778 107.017 101.378 106.733 100.945 106.6C100.545 106.467 100.078 106.4 99.5449 106.4C98.5783 106.4 97.6283 106.7 96.6949 107.3C95.7949 107.867 95.0449 108.667 94.4449 109.7C93.8783 110.733 93.5949 111.883 93.5949 113.15C93.5949 114.55 93.8616 115.717 94.3949 116.65C94.9616 117.583 95.8449 118.4 97.0449 119.1C97.4783 119.333 97.9783 119.517 98.5449 119.65C99.1449 119.783 99.6616 119.85 100.095 119.85C101.128 119.85 102.462 119.4 104.095 118.5C104.228 118.433 104.478 118.317 104.845 118.15C105.245 117.95 105.545 117.85 105.745 117.85C106.112 117.85 106.528 118.033 106.995 118.4C107.462 118.733 107.695 119.15 107.695 119.65C107.695 120.65 107.262 121.5 106.395 122.2C105.562 122.9 104.512 123.417 103.245 123.75C101.978 124.083 100.728 124.25 99.4949 124.25C97.5283 124.25 95.6949 123.8 93.9949 122.9C92.2949 122 90.9449 120.75 89.9449 119.15C88.9449 117.55 88.4449 115.75 88.4449 113.75C88.4449 111.583 88.9283 109.633 89.8949 107.9C90.8616 106.133 92.1616 104.75 93.7949 103.75C95.4616 102.717 97.2616 102.2 99.1949 102.2C101.062 102.2 102.778 102.567 104.345 103.3C105.945 104.033 106.745 105.15 106.745 106.65C106.745 108.117 105.995 108.85 104.495 108.85ZM134.399 121.6C134.399 122.333 133.999 122.95 133.199 123.45C132.399 123.95 131.665 124.2 130.999 124.2C129.765 124.2 128.765 124.05 127.999 123.75C127.265 123.417 126.565 122.817 125.899 121.95C125.065 122.717 123.899 123.3 122.399 123.7C120.899 124.067 119.515 124.25 118.249 124.25C116.182 124.25 114.465 123.7 113.099 122.6C111.765 121.467 111.099 119.817 111.099 117.65C111.099 116.717 111.382 115.783 111.949 114.85C112.515 113.883 113.215 113.117 114.049 112.55C114.949 111.95 115.965 111.55 117.099 111.35C118.232 111.117 119.549 111 121.049 111C121.749 111 122.582 111.133 123.549 111.4C124.515 111.667 125.282 111.95 125.849 112.25V111.45C125.849 109.65 125.399 108.417 124.499 107.75C123.632 107.05 122.232 106.7 120.299 106.7C119.699 106.7 119.149 106.8 118.649 107C118.182 107.167 117.632 107.417 116.999 107.75C116.399 108.083 115.832 108.25 115.299 108.25C114.832 108.25 114.382 108.067 113.949 107.7C113.515 107.3 113.299 106.883 113.299 106.45C113.299 105.05 114.165 104.033 115.899 103.4C117.665 102.733 119.465 102.4 121.299 102.4C122.232 102.4 123.299 102.6 124.499 103C125.699 103.367 126.715 103.883 127.549 104.55C128.549 105.383 129.315 106.383 129.849 107.55C130.415 108.717 130.699 109.983 130.699 111.35C130.699 111.783 130.665 112.433 130.599 113.3C130.532 114.233 130.499 115.033 130.499 115.7L130.449 117.05C130.382 117.783 130.349 118.367 130.349 118.8C130.349 119.2 130.482 119.55 130.749 119.85C131.049 120.117 131.399 120.25 131.799 120.25L133.199 120.2C133.565 120.2 133.849 120.35 134.049 120.65C134.282 120.917 134.399 121.233 134.399 121.6ZM118.249 120.3C119.682 120.3 120.882 120.15 121.849 119.85C122.815 119.55 123.982 119 125.349 118.2C125.482 117.633 125.565 116.883 125.599 115.95C123.765 115.083 122.249 114.65 121.049 114.65C119.915 114.65 118.999 114.7 118.299 114.8C117.599 114.867 116.965 115.15 116.399 115.65C115.832 116.15 115.549 116.95 115.549 118.05C115.549 118.683 115.849 119.217 116.449 119.65C117.082 120.083 117.682 120.3 118.249 120.3ZM137.727 106.7C137.26 106.633 136.877 106.433 136.577 106.1C136.31 105.767 136.177 105.367 136.177 104.9C136.177 104.667 136.227 104.417 136.327 104.15C136.46 103.883 136.643 103.65 136.877 103.45C137.31 103.083 137.893 102.733 138.627 102.4C139.393 102.1 139.943 101.733 140.277 101.3C140.61 100.867 140.777 100.05 140.777 98.85C140.777 98.35 140.743 97.9167 140.677 97.55C140.643 97.1833 140.627 96.9 140.627 96.7C140.627 95.9667 140.893 95.4167 141.427 95.05C141.96 94.6833 142.577 94.5 143.277 94.5C144.143 94.5 144.727 94.7167 145.027 95.15C145.36 95.5833 145.527 96.3833 145.527 97.55C145.527 98.6833 145.477 99.6667 145.377 100.5C145.277 101.3 145.06 102.017 144.727 102.65C145.193 102.65 145.96 102.617 147.027 102.55C148.493 102.483 149.51 102.45 150.077 102.45C150.643 102.45 151.143 102.6 151.577 102.9C152.01 103.167 152.227 103.55 152.227 104.05C152.227 104.75 152.077 105.267 151.777 105.6C151.477 105.933 151.043 106.15 150.477 106.25C149.11 106.617 147.177 106.833 144.677 106.9C144.61 108.2 144.577 109.617 144.577 111.15C144.577 113.717 144.727 115.683 145.027 117.05C145.227 118.117 145.56 118.9 146.027 119.4C146.527 119.867 147.26 120.1 148.227 120.1C148.727 120.1 149.127 120.033 149.427 119.9C149.76 119.767 149.943 119.683 149.977 119.65C150.377 119.417 150.743 119.3 151.077 119.3C151.543 119.3 151.877 119.45 152.077 119.75C152.31 120.05 152.427 120.45 152.427 120.95C152.427 121.883 151.927 122.667 150.927 123.3C149.927 123.9 148.643 124.2 147.077 124.2C145.31 124.2 143.81 123.683 142.577 122.65C141.377 121.583 140.66 120.183 140.427 118.45C140.093 116.883 139.927 114.683 139.927 111.85C139.927 110.617 139.993 108.967 140.127 106.9L137.727 106.7ZM158.975 91.9C160.142 92 161.159 92.3167 162.025 92.85C162.892 93.35 163.325 94.1167 163.325 95.15C163.325 95.9167 162.959 96.5333 162.225 97C161.525 97.4333 160.675 97.65 159.675 97.65C158.709 97.65 158.042 97.4 157.675 96.9C157.309 96.4 157.125 95.8833 157.125 95.35C157.125 94.35 157.225 93.5167 157.425 92.85C157.659 92.1833 158.175 91.8667 158.975 91.9ZM162.975 114.05V115.5C162.975 116.8 163.009 118.033 163.075 119.2C163.175 120.333 163.292 121.483 163.425 122.65C163.392 122.983 163.142 123.333 162.675 123.7C162.209 124.033 161.792 124.2 161.425 124.2C160.792 124.2 160.142 124.083 159.475 123.85C158.842 123.583 158.459 123.267 158.325 122.9C158.125 121.833 158.025 120.883 158.025 120.05C158.025 117.317 157.942 114.25 157.775 110.85C157.642 107.85 157.575 105.75 157.575 104.55C157.575 103.95 157.875 103.433 158.475 103C159.075 102.567 159.709 102.35 160.375 102.35C161.342 102.35 162.009 102.567 162.375 103C162.775 103.433 162.975 104.117 162.975 105.05V114.05ZM188.918 107.95C189.185 108.417 189.402 109.1 189.568 110C189.735 110.867 189.818 111.65 189.818 112.35C189.818 113.25 189.718 114.25 189.518 115.35C189.318 116.45 189.135 117.3 188.968 117.9C186.668 122.1 183.268 124.2 178.768 124.2C177.102 124.2 175.402 123.65 173.668 122.55C171.935 121.45 170.735 120.183 170.068 118.75C169.168 115.917 168.718 114.1 168.718 113.3C168.718 111.967 169.002 110.55 169.568 109.05C170.168 107.55 170.918 106.25 171.818 105.15C172.418 104.383 173.452 103.733 174.918 103.2C176.385 102.633 177.718 102.35 178.918 102.35C181.252 102.35 183.218 102.8 184.818 103.7C186.452 104.567 187.818 105.983 188.918 107.95ZM184.568 116C184.735 115.667 184.818 114.55 184.818 112.65C184.818 111.683 184.635 110.733 184.268 109.8C183.935 108.867 183.435 108.067 182.768 107.4C182.702 107.333 182.518 107.233 182.218 107.1C181.918 106.933 181.502 106.783 180.968 106.65C180.468 106.483 179.885 106.4 179.218 106.4C177.352 106.4 175.985 107.15 175.118 108.65C174.252 110.15 173.818 111.85 173.818 113.75C173.818 114.05 173.918 114.667 174.118 115.6C174.318 116.533 174.468 117.133 174.568 117.4C174.835 117.867 175.368 118.417 176.168 119.05C177.002 119.65 177.902 119.95 178.868 119.95C180.368 119.95 181.552 119.6 182.418 118.9C183.318 118.167 184.035 117.2 184.568 116ZM217.409 120.15C217.576 120.217 217.842 120.3 218.209 120.4C218.576 120.5 218.842 120.6 219.009 120.7C219.176 120.8 219.259 120.95 219.259 121.15C219.292 121.95 218.992 122.617 218.359 123.15C217.759 123.65 217.042 123.9 216.209 123.9C214.909 123.9 213.892 123.55 213.159 122.85C212.426 122.15 211.892 121.083 211.559 119.65C211.426 119.083 211.359 118.3 211.359 117.3C211.359 116.733 211.392 115.817 211.459 114.55C211.526 113.217 211.559 112.15 211.559 111.35C211.559 110.183 211.226 109.167 210.559 108.3C209.926 107.4 209.026 106.95 207.859 106.95C207.159 106.95 206.426 107.167 205.659 107.6C204.892 108 204.359 108.5 204.059 109.1C203.559 110.067 203.209 111.117 203.009 112.25C202.642 114.25 202.459 116.333 202.459 118.5C202.459 119.533 202.476 120.333 202.509 120.9C202.509 121.033 202.509 121.3 202.509 121.7C202.542 122.067 202.509 122.417 202.409 122.75C202.342 123.05 202.209 123.333 202.009 123.6C201.842 123.767 201.576 123.9 201.209 124C200.876 124.133 200.559 124.2 200.259 124.2C199.792 124.2 199.209 124 198.509 123.6C197.809 123.2 197.409 122.75 197.309 122.25L197.259 121.4C197.259 121.1 197.292 120.75 197.359 120.35C197.759 118.017 197.959 115.983 197.959 114.25C197.959 113.483 197.942 112.883 197.909 112.45L197.859 110.1C197.859 109.3 197.659 108.533 197.259 107.8C196.859 107.033 196.392 106.65 195.859 106.65C195.692 106.65 195.459 106.717 195.159 106.85C194.859 106.95 194.609 107 194.409 107C194.076 107 193.709 106.833 193.309 106.5C192.942 106.167 192.759 105.817 192.759 105.45C192.759 104.75 192.992 104.183 193.459 103.75C193.959 103.35 194.442 103.033 194.909 102.8C195.409 102.567 195.976 102.45 196.609 102.45C197.142 102.45 197.576 102.5 197.909 102.6C198.242 102.7 198.692 102.917 199.259 103.25C199.559 103.417 199.909 103.783 200.309 104.35C200.709 104.917 201.042 105.717 201.309 106.75C202.176 105.15 203.242 104.033 204.509 103.4C205.809 102.733 207.459 102.4 209.459 102.4C210.226 102.4 211.042 102.65 211.909 103.15C212.809 103.65 213.576 104.233 214.209 104.9C214.809 105.633 215.309 106.55 215.709 107.65C216.109 108.717 216.309 109.683 216.309 110.55C216.309 111.05 216.276 111.867 216.209 113C216.109 113.9 216.059 114.85 216.059 115.85C216.059 118.183 216.509 119.617 217.409 120.15ZM233.561 106.95C233.228 106.483 232.994 106.083 232.861 105.75C232.728 105.417 232.661 105 232.661 104.5C232.661 103.967 232.878 103.517 233.311 103.15C233.778 102.783 234.361 102.6 235.061 102.6C235.761 102.6 236.461 102.867 237.161 103.4C237.861 103.9 238.428 104.55 238.861 105.35C239.561 104.35 240.511 103.633 241.711 103.2C242.911 102.767 244.211 102.55 245.611 102.55C247.144 102.55 248.561 103.017 249.861 103.95C251.194 104.883 252.244 106.083 253.011 107.55C253.778 109.017 254.161 110.483 254.161 111.95C254.161 113.383 254.011 114.667 253.711 115.8C253.411 116.9 252.878 118.017 252.111 119.15C251.244 120.35 250.078 121.333 248.611 122.1C247.178 122.867 245.461 123.25 243.461 123.25C242.928 123.25 242.278 123.117 241.511 122.85C240.744 122.55 240.111 122.233 239.611 121.9C239.378 124.167 239.261 126.133 239.261 127.8C239.261 128.8 239.311 129.75 239.411 130.65C239.478 131.717 239.511 132.483 239.511 132.95C239.511 133.683 239.261 134.217 238.761 134.55C238.261 134.917 237.711 135.1 237.111 135.1C235.911 135.1 235.111 134.767 234.711 134.1C234.344 133.467 234.161 132.55 234.161 131.35C234.294 128.483 234.461 125.833 234.661 123.4C234.894 119.9 235.011 115.6 235.011 110.5C235.011 110.1 234.844 109.517 234.511 108.75C234.211 107.983 233.894 107.383 233.561 106.95ZM239.811 116.95C239.978 117.583 240.444 118.117 241.211 118.55C242.011 118.95 242.728 119.15 243.361 119.15C245.261 119.15 246.678 118.633 247.611 117.6C248.311 116.867 248.761 116.15 248.961 115.45C249.194 114.75 249.311 113.633 249.311 112.1C249.311 110.9 249.078 109.9 248.611 109.1C248.144 108.267 247.578 107.667 246.911 107.3C246.244 106.9 245.611 106.7 245.011 106.7C243.644 106.7 242.528 107.117 241.661 107.95C240.828 108.75 240.294 109.85 240.061 111.25C239.894 112.35 239.811 114.25 239.811 116.95ZM278.469 107.95C278.736 108.417 278.952 109.1 279.119 110C279.286 110.867 279.369 111.65 279.369 112.35C279.369 113.283 279.219 114.45 278.919 115.85C278.619 117.217 278.369 118.133 278.169 118.6C276.369 122.333 272.902 124.2 267.769 124.2C266.136 124.2 264.536 123.667 262.969 122.6C261.402 121.5 260.286 120.217 259.619 118.75L259.269 117.75C259.236 117.617 259.052 117.117 258.719 116.25C258.419 115.35 258.269 114.667 258.269 114.2C258.269 112.833 258.602 111.25 259.269 109.45C259.936 107.65 260.702 106.217 261.569 105.15C262.136 104.383 263.219 103.733 264.819 103.2C266.419 102.633 267.836 102.35 269.069 102.35C271.369 102.35 273.219 102.783 274.619 103.65C276.052 104.517 277.336 105.95 278.469 107.95ZM273.869 116C274.002 115.767 274.119 115.35 274.219 114.75C274.319 114.15 274.369 113.45 274.369 112.65C274.369 111.683 274.186 110.733 273.819 109.8C273.486 108.867 272.986 108.067 272.319 107.4C272.286 107.333 272.169 107.233 271.969 107.1C271.769 106.933 271.452 106.783 271.019 106.65C270.586 106.483 270.036 106.4 269.369 106.4C268.069 106.4 266.969 106.783 266.069 107.55C265.169 108.317 264.486 109.267 264.019 110.4C263.586 111.533 263.369 112.65 263.369 113.75C263.369 114.05 263.469 114.667 263.669 115.6C263.869 116.533 264.019 117.133 264.119 117.4C264.386 117.867 264.902 118.417 265.669 119.05C266.436 119.65 267.302 119.95 268.269 119.95C269.769 119.95 270.936 119.6 271.769 118.9C272.636 118.2 273.336 117.233 273.869 116ZM291.11 122C291.043 122.567 290.81 123.067 290.41 123.5C290.01 123.933 289.493 124.15 288.86 124.15C287.86 124.15 287.126 123.967 286.66 123.6C286.193 123.2 285.96 122.483 285.96 121.45C285.96 120.05 286.043 118.517 286.21 116.85C286.343 114.917 286.41 113.433 286.41 112.4C286.41 111.867 286.376 111.2 286.31 110.4C286.243 109.667 286.21 109.117 286.21 108.75C286.11 108.183 285.876 107.733 285.51 107.4C285.176 107.067 284.643 106.783 283.91 106.55C283.61 106.417 283.36 106.2 283.16 105.9C282.96 105.567 282.86 105.267 282.86 105C282.86 104.233 283.16 103.65 283.76 103.25C284.36 102.85 285.093 102.65 285.96 102.65C286.926 102.65 287.76 102.983 288.46 103.65C289.16 104.317 289.693 105.15 290.06 106.15C290.826 105.05 291.76 104.167 292.86 103.5C293.993 102.833 295.093 102.5 296.16 102.5C297.526 102.5 298.676 102.733 299.61 103.2C300.576 103.633 301.06 104.4 301.06 105.5C301.06 106.133 300.776 106.8 300.21 107.5C299.676 108.167 299.126 108.5 298.56 108.5C298.126 108.5 297.61 108.3 297.01 107.9C296.776 107.733 296.51 107.6 296.21 107.5C295.943 107.367 295.66 107.3 295.36 107.3C294.826 107.3 294.326 107.383 293.86 107.55C293.393 107.717 293.076 107.917 292.91 108.15C292.376 108.983 291.976 109.733 291.71 110.4C291.476 111.067 291.36 111.783 291.36 112.55C291.36 113.117 291.343 113.567 291.31 113.9L291.26 116.75L291.31 118.65C291.31 120.05 291.243 121.167 291.11 122ZM304.033 106.7C303.566 106.633 303.183 106.433 302.883 106.1C302.616 105.767 302.483 105.367 302.483 104.9C302.483 104.667 302.533 104.417 302.633 104.15C302.766 103.883 302.949 103.65 303.183 103.45C303.616 103.017 304.783 102.8 306.683 102.8C306.949 101.5 307.083 100.183 307.083 98.85C307.083 98.35 307.066 97.9167 307.033 97.55C306.999 97.1833 306.983 96.9 306.983 96.7C306.983 95.9667 307.249 95.4167 307.783 95.05C308.349 94.6833 308.983 94.5 309.683 94.5C310.549 94.5 311.133 94.7167 311.433 95.15C311.766 95.5833 311.933 96.3833 311.933 97.55C311.933 99.2833 311.783 100.983 311.483 102.65C312.016 102.65 312.749 102.617 313.683 102.55C314.949 102.483 315.866 102.45 316.433 102.45C316.999 102.45 317.483 102.6 317.883 102.9C318.316 103.167 318.533 103.55 318.533 104.05C318.533 105.35 317.949 106.117 316.783 106.35C315.549 106.65 313.633 106.833 311.033 106.9C310.933 108.2 310.883 109.617 310.883 111.15C310.883 113.55 311.033 115.517 311.333 117.05C311.533 118.117 311.866 118.9 312.333 119.4C312.833 119.867 313.566 120.1 314.533 120.1C315.099 120.1 315.683 119.95 316.283 119.65C316.683 119.417 317.049 119.3 317.383 119.3C317.849 119.3 318.183 119.45 318.383 119.75C318.616 120.05 318.733 120.45 318.733 120.95C318.733 121.883 318.233 122.667 317.233 123.3C316.233 123.9 314.949 124.2 313.383 124.2C312.416 124.2 311.433 123.967 310.433 123.5C309.466 123.033 308.649 122.45 307.983 121.75C307.883 121.65 307.699 121.267 307.433 120.6C307.166 119.933 306.933 119.217 306.733 118.45C306.399 116.883 306.233 114.683 306.233 111.85C306.233 110.617 306.299 108.967 306.433 106.9L304.033 106.7ZM345.582 121.6C345.582 122.333 345.182 122.95 344.382 123.45C343.615 123.95 342.898 124.2 342.232 124.2C340.965 124.2 339.948 124.05 339.182 123.75C338.448 123.417 337.765 122.817 337.132 121.95C336.265 122.717 335.082 123.3 333.582 123.7C332.082 124.067 330.698 124.25 329.432 124.25C327.365 124.25 325.665 123.7 324.332 122.6C322.998 121.467 322.332 119.817 322.332 117.65C322.332 116.717 322.582 115.867 323.082 115.1C323.582 114.3 324.265 113.6 325.132 113C326.098 112.367 327.198 111.883 328.432 111.55C329.665 111.183 330.948 111 332.282 111C332.982 111 333.815 111.133 334.782 111.4C335.748 111.667 336.498 111.95 337.032 112.25V111.45C337.032 109.65 336.598 108.417 335.732 107.75C334.865 107.05 333.465 106.7 331.532 106.7C330.965 106.7 330.398 106.817 329.832 107.05C329.298 107.283 328.682 107.6 327.982 108C327.048 108.5 326.165 108.75 325.332 108.75C325.032 108.75 324.748 108.55 324.482 108.15C324.215 107.717 324.082 107.333 324.082 107C324.082 106.033 324.532 105.2 325.432 104.5C326.365 103.8 327.465 103.283 328.732 102.95C329.998 102.583 331.132 102.4 332.132 102.4C333.132 102.4 334.282 102.6 335.582 103C336.882 103.367 337.948 103.883 338.782 104.55C339.782 105.417 340.548 106.433 341.082 107.6C341.648 108.733 341.932 109.983 341.932 111.35C341.932 111.783 341.898 112.433 341.832 113.3C341.765 114.233 341.732 115.033 341.732 115.7C341.732 116 341.698 116.45 341.632 117.05C341.565 117.783 341.532 118.367 341.532 118.8C341.532 119.2 341.682 119.55 341.982 119.85C342.282 120.117 342.632 120.25 343.032 120.25L344.432 120.2C344.798 120.2 345.082 120.333 345.282 120.6C345.482 120.867 345.582 121.2 345.582 121.6ZM329.482 120.3C330.915 120.3 332.115 120.15 333.082 119.85C334.048 119.55 335.215 119 336.582 118.2C336.715 117.633 336.798 116.883 336.832 115.95C334.998 115.083 333.482 114.65 332.282 114.65C330.915 114.65 329.698 114.9 328.632 115.4C327.565 115.9 327.032 116.783 327.032 118.05C327.032 118.683 327.298 119.217 327.832 119.65C328.365 120.083 328.915 120.3 329.482 120.3ZM354.506 116.25C354.506 117.517 354.689 118.5 355.056 119.2C355.456 119.867 355.956 120.2 356.556 120.2C356.889 120.2 357.206 120.183 357.506 120.15C357.806 120.083 358.106 120.05 358.406 120.05C358.739 120.05 359.023 120.217 359.256 120.55C359.523 120.883 359.656 121.25 359.656 121.65C359.656 122.45 359.273 123.083 358.506 123.55C357.773 123.983 356.773 124.2 355.506 124.2C354.606 124.2 353.689 123.933 352.756 123.4C351.856 122.833 351.106 121.967 350.506 120.8C349.906 119.6 349.606 118.117 349.606 116.35C349.606 112.55 349.673 109.333 349.806 106.7C349.973 103.567 350.056 99.6167 350.056 94.85C350.056 93.35 350.139 92.3 350.306 91.7C350.506 91.2333 350.823 90.8833 351.256 90.65C351.723 90.3833 352.206 90.25 352.706 90.25C353.206 90.25 353.639 90.3333 354.006 90.5C354.406 90.6667 354.673 90.9333 354.806 91.3C354.939 91.7 355.023 92.1 355.056 92.5C355.123 92.8667 355.156 93.4 355.156 94.1C355.156 95.4667 355.106 96.7833 355.006 98.05C354.939 99.5833 354.906 100.7 354.906 101.4C354.639 107.267 354.506 112.217 354.506 116.25Z" fill="black"/>
</svg>
