<svg width="333" height="84" viewBox="0 0 333 84" fill="none" xmlns="http://www.w3.org/2000/svg">
<g filter="url(#filter0_d_12_35)">
<path d="M39.2713 25.28C40.2846 26.9333 42.0713 30.2933 44.6313 35.36C45.0046 36.1067 45.5913 37.28 46.3913 38.88C47.2446 40.48 47.9113 41.7067 48.3913 42.56L49.3513 44.32C51.3246 47.9467 52.7913 50.5333 53.7513 52.08C54.7113 53.6267 55.5646 54.6133 56.3113 55.04L61.1113 56.24L60.7113 60H46.0713C45.0579 59.8933 44.0979 59.0933 43.1913 57.6C42.2846 56.1067 41.0313 53.6 39.4313 50.08C39.3779 50.0267 38.4179 47.8133 36.5513 43.44C34.6313 38.8533 33.0579 35.3067 31.8313 32.8L24.0713 40.8L22.2313 55.2L28.7913 56.32L28.3913 60H4.79125L5.27125 56.32L10.9513 55.2L17.4313 5.44L11.9113 4.48L12.3113 0.559998H35.7513L35.2713 4.48L28.6313 5.44L25.0312 32.88L50.4713 5.44L45.1113 4.4L45.5113 0.559998H63.9913L63.5113 4.48L58.6313 5.36L39.2713 25.28ZM78.6394 36.88C78.426 38.8533 78.2394 40.24 78.0794 41.04C77.546 45.2 77.2794 47.8667 77.2794 49.04C77.2794 51.1733 77.6527 52.6933 78.3994 53.6C79.146 54.5067 80.266 54.96 81.7594 54.96C83.466 54.96 85.146 54.4267 86.7994 53.36C88.506 52.2933 89.946 51.0133 91.1194 49.52L95.7594 14.96H106.319L101.199 52C101.093 52.96 101.173 53.68 101.439 54.16C101.706 54.64 102.106 54.88 102.639 54.88C103.119 54.88 103.626 54.7467 104.159 54.48C104.693 54.16 105.439 53.6 106.399 52.8L107.519 55.28C106.826 56.4 105.546 57.6 103.679 58.88C101.813 60.16 99.6794 60.8 97.2794 60.8C95.4127 60.8 93.9727 60.4 92.9594 59.6C91.9994 58.8 91.466 57.7067 91.3594 56.32L91.2794 55.36C91.2794 54.9333 91.3327 54.4 91.4394 53.76L91.2794 53.68C87.3327 58.4267 82.6927 60.8 77.3594 60.8C74.3727 60.8 71.8394 60 69.7594 58.4C67.6794 56.7467 66.6127 54.1333 66.5594 50.56C66.5594 48.48 66.9327 44.72 67.6794 39.28C67.8927 37.9467 68.026 37.04 68.0794 36.56L70.2394 22L65.5994 19.28L66.2394 16L79.5194 14.64L81.3594 15.52L78.6394 36.88ZM136.262 60H111.942L109.862 56.8C113.595 52.0533 118.209 44.56 123.702 34.32C129.249 24.0267 133.489 15.1733 136.422 7.76H137.782L147.622 12.24C144.209 18.32 140.155 25.2 135.462 32.88C130.822 40.5067 127.062 46.1333 124.182 49.76C123.915 50.08 122.769 51.44 120.742 53.84L119.222 55.6L137.142 54.4L138.982 40.16L149.142 37.44L147.302 53.68L155.622 53.12L154.742 60H146.182L144.342 74.64H134.342L136.262 60ZM201.241 36.24C203.374 30.9067 205.881 24.96 208.761 18.4C212.601 9.28 215.081 3.33333 216.201 0.559998H237.081L236.601 4.48L229.641 5.44L228.121 55.2L235.001 56.32L234.761 60H209.481L209.801 56.24L217.161 55.28L219.161 21.04L220.041 5.2L214.281 19.12L196.521 60.08L190.921 60.72L185.081 20.08L182.761 5.2L179.401 20.48L171.081 55.2L179.561 56.32L179.241 60H156.681L157.081 56.32L163.561 55.2L176.361 5.44L168.841 4.48L169.401 0.559998H192.681L197.561 36.16L198.521 43.44L201.241 36.24ZM267.71 0.559998L267.31 4.48L260.83 5.44L254.35 55.2L260.99 56.32L260.75 60H236.83L237.31 56.32L243.15 55.2L249.63 5.44L244.03 4.48L244.43 0.559998H267.71ZM291.493 0.559998L307.813 41.12L310.853 50.08L316.453 5.36L309.813 4.48L310.213 0.559998H328.933L328.613 4.48L323.413 5.44L315.333 60H303.973L287.173 18.64L284.133 9.12L279.013 55.2L286.213 56.32L285.893 60H265.732L265.973 56.32L271.653 55.28L278.773 5.44L272.453 4.48L273.013 0.559998H291.493Z" fill="url(#paint0_linear_12_35)"/>
</g>
<defs>
<filter id="filter0_d_12_35" x="0.79126" y="0.559998" width="332.141" height="83.08" filterUnits="userSpaceOnUse" color-interpolation-filters="sRGB">
<feFlood flood-opacity="0" result="BackgroundImageFix"/>
<feColorMatrix in="SourceAlpha" type="matrix" values="0 0 0 0 0 0 0 0 0 0 0 0 0 0 0 0 0 0 127 0" result="hardAlpha"/>
<feOffset dy="5"/>
<feGaussianBlur stdDeviation="2"/>
<feComposite in2="hardAlpha" operator="out"/>
<feColorMatrix type="matrix" values="0 0 0 0 0.0313726 0 0 0 0 0.568627 0 0 0 0 0.698039 0 0 0 0.25 0"/>
<feBlend mode="normal" in2="BackgroundImageFix" result="effect1_dropShadow_12_35"/>
<feBlend mode="normal" in="SourceGraphic" in2="effect1_dropShadow_12_35" result="shape"/>
</filter>
<linearGradient id="paint0_linear_12_35" x1="47" y1="154" x2="321" y2="154" gradientUnits="userSpaceOnUse">
<stop stop-color="#00DDC5"/>
<stop offset="1" stop-color="#0891B2"/>
</linearGradient>
</defs>
</svg>
