<svg width="49" height="71" viewBox="0 0 49 71" fill="none" xmlns="http://www.w3.org/2000/svg">
<path d="M41.65 0H7.35C5.40066 0 3.53116 0.801465 2.15277 2.22808C0.774373 3.6547 0 5.5896 0 7.60714V63.3929C0 65.4104 0.774373 67.3453 2.15277 68.7719C3.53116 70.1985 5.40066 71 7.35 71H41.65C43.5993 71 45.4688 70.1985 46.8472 68.7719C48.2256 67.3453 49 65.4104 49 63.3929V7.60714C49 5.5896 48.2256 3.6547 46.8472 2.22808C45.4688 0.801465 43.5993 0 41.65 0ZM44.1 63.3929C44.1 64.0654 43.8419 64.7103 43.3824 65.1859C42.923 65.6614 42.2998 65.9286 41.65 65.9286H7.35C6.70022 65.9286 6.07705 65.6614 5.61759 65.1859C5.15812 64.7103 4.9 64.0654 4.9 63.3929V7.60714C4.9 6.93463 5.15812 6.28966 5.61759 5.81412C6.07705 5.33858 6.70022 5.07143 7.35 5.07143H41.65C42.2998 5.07143 42.923 5.33858 43.3824 5.81412C43.8419 6.28966 44.1 6.93463 44.1 7.60714V63.3929Z" fill="white"/>
<path d="M31.1885 24.495C32.3989 22.9433 33.0641 21.0121 33.075 19.0179C33.075 16.6641 32.1716 14.4067 30.5635 12.7423C28.9554 11.0779 26.7743 10.1429 24.5 10.1429C22.2258 10.1429 20.0447 11.0779 18.4366 12.7423C16.8285 14.4067 15.925 16.6641 15.925 19.0179C15.936 21.0121 16.6012 22.9433 17.8116 24.495C15.401 25.7698 13.3774 27.7086 11.9638 30.0979C10.5501 32.4872 9.80138 35.2341 9.80005 38.0357C9.80005 38.7082 10.0582 39.3532 10.5176 39.8287C10.9771 40.3043 11.6003 40.5714 12.25 40.5714H36.75C37.3998 40.5714 38.023 40.3043 38.4825 39.8287C38.9419 39.3532 39.2001 38.7082 39.2001 38.0357C39.1987 35.2341 38.45 32.4872 37.0363 30.0979C35.6227 27.7086 33.5991 25.7698 31.1885 24.495ZM20.825 19.0179C20.825 18.2656 21.0406 17.5302 21.4444 16.9047C21.8482 16.2792 22.4222 15.7917 23.0937 15.5038C23.7652 15.2159 24.5041 15.1406 25.217 15.2874C25.9299 15.4341 26.5847 15.7964 27.0987 16.3283C27.6126 16.8603 27.9626 17.538 28.1044 18.2758C28.2462 19.0136 28.1735 19.7784 27.8953 20.4734C27.6172 21.1684 27.1461 21.7625 26.5418 22.1804C25.9374 22.5984 25.2269 22.8214 24.5 22.8214C23.5254 22.8214 22.5906 22.4207 21.9014 21.7074C21.2122 20.9941 20.825 20.0266 20.825 19.0179ZM24.5 27.8929C26.6672 27.9001 28.7709 28.6507 30.4821 30.0271C32.1932 31.4036 33.4153 33.3282 33.9571 35.5H15.043C15.5848 33.3282 16.8069 31.4036 18.518 30.0271C20.2292 28.6507 22.3329 27.9001 24.5 27.8929Z" fill="white"/>
<path d="M12.25 50.7143H17.15C17.7998 50.7143 18.423 50.4471 18.8825 49.9716C19.3419 49.4961 19.6 48.8511 19.6 48.1786C19.6 47.5061 19.3419 46.8611 18.8825 46.3855C18.423 45.91 17.7998 45.6429 17.15 45.6429H12.25C11.6003 45.6429 10.9771 45.91 10.5176 46.3855C10.0582 46.8611 9.80005 47.5061 9.80005 48.1786C9.80005 48.8511 10.0582 49.4961 10.5176 49.9716C10.9771 50.4471 11.6003 50.7143 12.25 50.7143Z" fill="white"/>
<path d="M36.75 45.6429H26.95C26.3002 45.6429 25.6771 45.91 25.2176 46.3855C24.7581 46.8611 24.5 47.5061 24.5 48.1786C24.5 48.8511 24.7581 49.4961 25.2176 49.9716C25.6771 50.4471 26.3002 50.7143 26.95 50.7143H36.75C37.3998 50.7143 38.0229 50.4471 38.4824 49.9716C38.9419 49.4961 39.2 48.8511 39.2 48.1786C39.2 47.5061 38.9419 46.8611 38.4824 46.3855C38.0229 45.91 37.3998 45.6429 36.75 45.6429Z" fill="white"/>
<path d="M36.75 55.7857H12.25C11.6003 55.7857 10.9771 56.0529 10.5176 56.5284C10.0582 57.0039 9.80005 57.6489 9.80005 58.3214C9.80005 58.9939 10.0582 59.6389 10.5176 60.1144C10.9771 60.59 11.6003 60.8571 12.25 60.8571H36.75C37.3998 60.8571 38.023 60.59 38.4825 60.1144C38.9419 59.6389 39.2001 58.9939 39.2001 58.3214C39.2001 57.6489 38.9419 57.0039 38.4825 56.5284C38.023 56.0529 37.3998 55.7857 36.75 55.7857Z" fill="white"/>
</svg>
