<svg width="58" height="78" viewBox="0 0 58 78" fill="none" xmlns="http://www.w3.org/2000/svg">
<path d="M18.8501 53.625C18.6335 53.625 18.4169 53.6783 18.2103 53.7911C17.0358 54.4324 15.8006 54.8438 14.5001 54.8438C13.1996 54.8438 11.9644 54.4324 10.789 53.7911C10.5824 53.6783 10.3667 53.625 10.1501 53.625C4.52595 53.625 -0.0297598 61.3153 0.000146402 70.782C0.0128339 74.7825 1.96942 78 4.35014 78H24.6501C27.0308 78 28.9874 74.7825 29.0001 70.782C29.03 61.3153 24.4743 53.625 18.8501 53.625ZM14.5001 48.75C19.305 48.75 23.2001 42.2023 23.2001 34.125C23.2001 26.0477 19.305 19.5 14.5001 19.5C9.69518 19.5 5.80013 26.0477 5.80013 34.125C5.80013 42.2023 9.69518 48.75 14.5001 48.75ZM53.65 0H18.8501C16.4513 0 14.5001 3.38965 14.5001 7.55473V14.625C16.6225 14.625 18.5873 15.6579 20.3001 17.3367V9.75H52.2V53.625H46.4V43.875H34.8001V53.625H27.8908C29.6218 56.1676 30.8923 59.5253 31.4877 63.375H53.65C56.0488 63.375 58 59.9854 58 55.8203V7.55473C58 3.38965 56.0488 0 53.65 0Z" fill="white"/>
</svg>
