<svg width="64" height="50" viewBox="0 0 64 50" fill="none" xmlns="http://www.w3.org/2000/svg">
<path d="M62.818 9.636H62.761C61.665 9.643 61.495 8.691 61.476 8.249V1.336C61.476 0.598 60.878 0 60.142 0H40.377C35.418 0 33.568 1.838 33.109 2.415L32.983 2.59L32.982 2.593L32.591 3.129C32.59 3.129 32.59 3.129 32.59 3.129C32.065 3.85 31.608 3.543 31.388 3.307L30.64 2.374L30.27 1.928C29.648 1.275 28.027 0 24.814 0H3.757C3.019 0 2.421 0.598 2.421 1.336V8.161C2.421 9.356 1.772 9.596 1.374 9.636H1.078C0.754 9.656 0 9.844 0 11.231V43.76C0 44.558 0.647 45.204 1.445 45.204H20.663C26.794 45.204 29.466 47.516 30.267 48.403L30.724 48.969H30.725C30.725 48.969 31.951 50.356 33.243 48.969L33.511 48.655V48.656L33.515 48.653L33.857 48.253C33.867 48.241 33.949 48.149 34.068 48.027C35.091 47.032 37.648 45.204 42.648 45.204H62.453C63.252 45.204 63.898 44.558 63.898 43.76V10.916C63.898 9.74 63.047 9.642 62.818 9.636ZM58.5 38.656C58.5 39.297 57.965 39.814 57.299 39.814H41.004C35.205 39.814 33.1 42.434 33.1 42.434L32.833 42.792L32.708 42.965C32.707 42.965 32.707 42.965 32.707 42.965C32.154 43.716 31.341 42.971 31.337 42.967L30.962 42.498C30.684 42.164 28.554 39.813 23.399 39.813H6.599C5.936 39.813 5.4 39.295 5.4 38.655V3.993C5.4 3.353 5.936 2.835 6.599 2.835H19.642C29.344 2.835 30.263 8.346 30.326 9.947V34.053C30.326 35.805 31.161 36.134 31.632 36.182H32.333C32.813 36.134 33.576 35.849 33.576 34.482V9.636H33.568C33.64 7.631 34.422 2.834 40.257 2.834H57.299C57.965 2.834 58.5 3.352 58.5 3.992V38.656Z" fill="white"/>
</svg>
